<svg xmlns="http://www.w3.org/2000/svg" width="32" height="12" viewBox="0 0 32 12">
    <g fill="#0096FF" fill-rule="evenodd">
        <path d="M2.88 2.943L2.267 1.43l-.61 1.514H2.88zm13.508-.603c-.123.076-.27.078-.444.078h-1.088v-.844h1.103c.156 0 .32.008.425.069.116.055.188.173.188.336 0 .166-.068.3-.184.361zm7.763.603l-.62-1.514-.616 1.514h1.236zM9.68 4.583h-.918l-.003-2.976-1.3 2.976h-.786L5.37 1.604v2.979H3.547l-.344-.848H1.338l-.348.848H.017l1.605-3.8h1.33L4.476 4.38V.783h1.462l1.173 2.578L8.188.783h1.491v3.8zm3.66 0h-2.992v-3.8h2.993v.791h-2.097v.685h2.046v.779h-2.046v.759h2.097v.786zm4.22-2.776c0 .605-.399.918-.631 1.012.196.076.363.21.443.32.126.19.148.358.148.697v.747h-.903l-.004-.48c0-.228.022-.557-.141-.74-.131-.133-.33-.162-.653-.162h-.962v1.382h-.896v-3.8h2.061c.458 0 .795.013 1.085.182.283.17.453.418.453.842zm.52-1.024h.914v3.8h-.914v-3.8zm11.518 3.8h-1.27L26.63 1.73v2.852h-1.825l-.348-.848h-1.861l-.338.848h-1.049c-.435 0-.987-.098-1.299-.42-.315-.323-.479-.76-.479-1.451 0-.564.099-1.079.484-1.486.289-.303.743-.443 1.36-.443h.867v.814h-.849c-.327 0-.511.05-.69.226-.152.16-.257.462-.257.86 0 .407.08.7.247.892.138.15.388.196.624.196h.402L22.882.783h1.342l1.517 3.594V.783h1.364L28.68 3.43V.783h.917v3.8zm-29.59.746h1.53l.346-.844h.772L3 5.329h3.012v-.645l.269.647h1.563l.27-.657v.655h7.484l-.004-1.385h.145c.101.003.131.013.131.182V5.33h3.871v-.323c.312.17.798.323 1.437.323h1.628l.349-.844h.773l.34.844h3.139v-.802l.475.802h2.515V.03h-2.489v.626L27.558.03h-2.553v.626l-.32-.626h-3.45c-.577 0-1.085.082-1.495.31V.03h-2.38v.31c-.261-.235-.617-.31-1.012-.31H7.65l-.584 1.369L6.468.03h-2.74v.626l-.3-.626H1.092L.007 2.55v2.779zM31.88 8.131h-1.633c-.163 0-.272.006-.363.069-.094.061-.13.153-.13.273 0 .144.079.241.195.283.095.034.196.043.345.043l.486.013c.49.013.817.098 1.016.306.037.03.058.062.083.094v-1.08zm0 2.505c-.218.323-.642.486-1.216.486h-1.73v-.814h1.723c.17 0 .29-.023.362-.094a.336.336 0 0 0 .106-.248.314.314 0 0 0-.11-.252c-.064-.058-.159-.084-.315-.084-.841-.029-1.89.026-1.89-1.176 0-.551.345-1.132 1.285-1.132h1.784v-.756h-1.658c-.5 0-.863.122-1.12.31v-.31h-2.453c-.392 0-.853.099-1.07.31v-.31h-4.38v.31c-.348-.254-.936-.31-1.207-.31h-2.889v.31c-.276-.27-.889-.31-1.263-.31h-3.232l-.74.812-.693-.812H6.345v5.303h4.738l.762-.824.719.824 2.92.002v-1.247h.287c.388.006.845-.01 1.248-.186v1.43h2.409v-1.381h.116c.149 0 .163.006.163.156v1.226h7.318c.465 0 .95-.121 1.22-.34v.34h2.32c.484 0 .956-.07 1.314-.245v-.988zm-3.574-1.518c.174.183.268.414.268.805 0 .818-.504 1.2-1.407 1.2h-1.745v-.815h1.738c.17 0 .29-.023.365-.094a.339.339 0 0 0 .106-.248.328.328 0 0 0-.109-.252c-.069-.058-.163-.084-.319-.084-.838-.029-1.887.026-1.887-1.176 0-.551.342-1.132 1.28-1.132h1.797v.81h-1.644c-.163 0-.268.005-.359.068-.098.061-.134.153-.134.273 0 .144.083.241.196.283.095.034.196.043.349.043l.482.014c.486.012.82.097 1.023.305zm-8.084-.234c-.12.072-.268.078-.442.078h-1.088v-.854h1.103c.16 0 .319.004.427.069.116.062.186.18.186.342 0 .163-.07.293-.186.365zm.541.472c.2.075.363.209.44.32.126.185.144.358.148.693v.753h-.9v-.475c0-.228.022-.567-.145-.744-.13-.136-.33-.168-.657-.168h-.957v1.387h-.9v-3.8h2.068c.453 0 .784.02 1.078.18.283.173.46.41.46.844 0 .606-.399.916-.635 1.01zm1.132-2.034h2.99v.786h-2.098V8.8h2.047v.775h-2.047v.757l2.098.003v.788h-2.99v-3.8zm-6.044 1.754h-1.158v-.968h1.168c.324 0 .548.134.548.466 0 .33-.214.502-.558.502zm-2.05 1.7L12.426 9.23 13.8 7.73v3.047zm-3.552-.445H8.046v-.757h1.967V8.8H8.046v-.69h2.246l.98 1.107-1.023 1.115zm7.122-1.757c0 1.056-.777 1.274-1.56 1.274h-1.118v1.274h-1.741l-1.103-1.257-1.147 1.257H7.154v-3.8h3.603l1.102 1.246L13 7.322h2.862c.711 0 1.51.2 1.51 1.252z"/>
    </g>
</svg>
