<svg xmlns="http://www.w3.org/2000/svg" width="62" height="23" viewBox="0 0 62 23">
    <g fill="#4B96E1" fill-rule="evenodd">
        <path d="M5.58 5.641L4.391 2.738 3.21 5.641h2.37zM31.75 4.485c-.238.145-.52.15-.859.15h-2.108V3.018h2.137c.302 0 .618.014.823.131.225.106.365.332.365.644 0 .318-.133.574-.358.692zm15.042 1.156l-1.201-2.903-1.194 2.903h2.395zm-28.04 3.142h-1.779l-.006-5.703-2.517 5.703h-1.524l-2.523-5.708v5.708h-3.53L6.205 7.16H2.592L1.92 8.783H.033l3.109-7.282H5.72l2.953 6.895V1.5h2.832l2.272 4.94 2.087-4.94h2.89v7.282zm7.092 0h-5.798V1.501h5.798v1.517h-4.062V4.33h3.965v1.493h-3.965v1.454h4.062v1.506zm8.176-5.32c0 1.16-.773 1.76-1.223 1.94.38.145.704.401.858.614.245.362.287.685.287 1.336v1.43h-1.75l-.007-.918c0-.438.042-1.068-.274-1.419-.253-.256-.64-.311-1.265-.311h-1.863v2.648h-1.736V1.501h3.993c.887 0 1.54.024 2.101.35.55.325.879.8.879 1.612zM35.027 1.5h1.771v7.282h-1.77V1.501zm22.318 7.282h-2.46l-3.29-5.465v5.465H48.06l-.675-1.624h-3.606l-.655 1.624h-2.031c-.844 0-1.912-.187-2.517-.805-.61-.619-.927-1.456-.927-2.78 0-1.08.19-2.067.935-2.847.561-.582 1.44-.85 2.636-.85h1.68v1.56h-1.645c-.633 0-.99.095-1.335.432-.296.307-.5.886-.5 1.65 0 .78.156 1.342.478 1.71.268.288.753.375 1.21.375h.78l2.446-5.726h2.6l2.94 6.887V1.502h2.642l3.05 5.071V1.502h1.779v7.281zM.013 10.213H2.98l.668-1.617h1.497l.667 1.618h5.836V8.977l.52 1.242h3.03l.52-1.26v1.255H30.22l-.007-2.656h.28c.197.007.254.025.254.351v2.305h7.5v-.619c.605.325 1.546.619 2.784.619h3.156l.675-1.618h1.497l.66 1.618h6.08V8.677l.922 1.537h4.872V.058H54.07v1.199l-.676-1.2h-4.948v1.2l-.62-1.2h-6.683c-1.119 0-2.102.157-2.897.594V.058h-4.612V.65C33.129.2 32.44.058 31.674.058h-16.85L13.693 2.68 12.532.058H7.224v1.199l-.583-1.2H2.115L.013 4.888v5.327zM61.767 15.585h-3.164c-.316 0-.526.011-.703.131-.183.118-.253.293-.253.524a.55.55 0 0 0 .38.543c.183.064.38.082.668.082l.941.025c.95.024 1.583.188 1.97.587.07.055.112.118.16.18v-2.072zm0 4.802c-.422.618-1.244.931-2.356.931H56.06v-1.562h3.338c.331 0 .563-.043.703-.18a.641.641 0 0 0 .205-.475.6.6 0 0 0-.212-.482c-.126-.11-.31-.161-.612-.161-1.63-.056-3.662.05-3.662-2.255 0-1.056.668-2.168 2.49-2.168h3.457v-1.45h-3.212c-.97 0-1.674.234-2.172.595v-.594H51.63c-.76 0-1.651.189-2.073.594v-.594h-8.485v.594c-.675-.488-1.815-.594-2.34-.594h-5.597v.594c-.534-.518-1.722-.594-2.446-.594h-6.264l-1.433 1.555-1.342-1.555h-9.357v10.163h9.18l1.477-1.58 1.392 1.58 5.658.005v-2.39h.557c.75.01 1.636-.02 2.418-.358v2.743h4.667v-2.65h.225c.287 0 .316.013.316.3v2.35H52.36c.9 0 1.842-.232 2.363-.651v.65h4.497c.936 0 1.85-.131 2.546-.468v-1.893zm-6.924-2.91c.338.35.519.793.519 1.543 0 1.567-.976 2.298-2.727 2.298h-3.38v-1.562h3.367c.329 0 .562-.043.709-.18a.646.646 0 0 0 .205-.475.626.626 0 0 0-.212-.482c-.133-.11-.316-.161-.618-.161-1.624-.056-3.656.05-3.656-2.255 0-1.056.662-2.168 2.481-2.168h3.48v1.55h-3.184c-.316 0-.52.012-.695.132-.19.117-.26.293-.26.524 0 .275.16.461.379.542.183.064.38.083.675.083l.935.025c.942.023 1.589.187 1.982.586zm-15.662-.45c-.233.138-.52.15-.857.15h-2.109v-1.636h2.137c.31 0 .619.007.829.132.225.118.359.343.359.655s-.134.562-.36.699zm1.048.906c.386.143.702.4.85.612.245.355.28.687.288 1.33v1.443h-1.743v-.911c0-.438.042-1.087-.28-1.426-.254-.26-.64-.323-1.274-.323h-1.855v2.66h-1.744v-7.283h4.008c.878 0 1.518.038 2.088.344.548.331.892.786.892 1.617 0 1.162-.773 1.755-1.23 1.937zm2.193-3.898h5.793v1.506H44.15v1.324h3.965v1.486H44.15v1.45l4.065.006v1.511h-5.793v-7.283zm-11.71 3.36h-2.244v-1.854h2.263c.627 0 1.062.256 1.062.893 0 .63-.415.962-1.082.962zm-3.973 3.26l-2.665-2.966 2.665-2.873v5.84zm-6.882-.855H15.59v-1.449h3.81v-1.486h-3.81v-1.324h4.351l1.899 2.123-1.983 2.136zm13.8-3.366c0 2.024-1.506 2.441-3.023 2.441h-2.166v2.443h-3.374l-2.137-2.41-2.221 2.41h-6.875v-7.283h6.98l2.136 2.387 2.208-2.387h5.546c1.378 0 2.925.382 2.925 2.4z"/>
    </g>
</svg>
