<svg xmlns="http://www.w3.org/2000/svg" width="25" height="25" viewBox="0 0 25 25">
    <path fill="#377DC8" fill-rule="nonzero" d="M18.18 13.75c.938 0 1.763-.513 2.187-1.288l4.474-8.112a1.245 1.245 0 0 0-1.087-1.85H5.26L4.086 0H0v2.5h2.5l4.497 9.487-1.686 3.05c-.913 1.675.287 3.713 2.186 3.713h14.995v-2.5H7.497l1.375-2.5h9.309zM6.449 5h15.181l-3.448 6.25H9.409L6.448 5zm1.05 15c1.374 0 2.498 1.125 2.498 2.5S8.872 25 7.497 25a2.496 2.496 0 0 1-2.486-2.5c0-1.375 1.112-2.5 2.486-2.5zm12.495 0c1.374 0 2.499 1.125 2.499 2.5s-1.125 2.5-2.5 2.5a2.496 2.496 0 0 1-2.486-2.5c0-1.375 1.112-2.5 2.487-2.5z"/>
</svg>
