<svg xmlns="http://www.w3.org/2000/svg" width="70" height="55" viewBox="0 0 70 55">
    <g fill="none" fill-rule="evenodd">
        <path fill="#00377B" d="M70 24.46C70 10.952 54.33 0 35 0S0 10.952 0 24.46C0 36.246 11.93 46.082 27.81 48.4c3.605 2.992 9.927 6.6 19.471 6.6-3.179-2.849-3.692-5.214-3.403-6.877C58.908 45.376 70 35.823 70 24.46"/>
        <path fill="#FFF" d="M23.875 26.174c-1.166 0-2.11-.974-2.11-2.174 0-1.201.944-2.174 2.11-2.174s2.11.973 2.11 2.174c0 1.2-.944 2.174-2.11 2.174m30.592-6.522H36.42v-.435c0-2.88-2.269-5.217-5.067-5.217h-9.288C19.27 14 17 16.336 17 19.217v9.566C17 31.663 19.269 34 22.066 34h9.288c2.798 0 5.067-2.336 5.067-5.217v-.435h5.009v-2.253c0-.48.378-.87.844-.87h.845c.465 0 .844.39.844.87v2.253h2.53v-1.639c0-.48.379-.87.845-.87h.844c.466 0 .845.39.845.87v1.639h2.53v-2.253c0-.48.379-.87.845-.87h.844c.467 0 .844.39.844.87v2.253h2.066a.857.857 0 0 0 .844-.87v-5.217c0-1.441-1.134-2.609-2.533-2.609"/>
    </g>
</svg>
