<svg xmlns="http://www.w3.org/2000/svg" width="57" height="71" viewBox="0 0 57 71">
    <g fill="none" fill-rule="evenodd">
        <path stroke="#377DC8" stroke-linejoin="round" stroke-width="3.5" d="M21.19 10.467v32.332M4.965 26.632h32.449M11.877 17.354l18.625 18.557M11.877 35.911l18.625-18.557M41.138 20.894l-5.76 5.738 5.76 5.739M1.242 20.894l5.76 5.738-5.76 5.739M15.43 6.758l5.76 5.738 5.759-5.738M15.43 46.508l5.76-5.738 5.759 5.738M29.062 10.673v8.116h8.146M5.172 34.477h8.145v8.116M5.172 18.789h8.145v-8.116M29.062 42.593v-8.116h8.146"/>
        <path fill="#00377B" d="M56.126 56.108c0 7.942-6.461 14.38-14.43 14.38-7.971 0-14.432-6.438-14.432-14.38 0-7.94 6.461-14.378 14.431-14.378 7.97 0 14.431 6.438 14.431 14.378"/>
        <path fill="#00377B" d="M41.695 53.95c-3.985 0-7.215-3.22-7.215-7.19V8.697c0-3.972 3.23-7.19 7.215-7.19s7.215 3.218 7.215 7.19V46.76c0 3.97-3.23 7.19-7.215 7.19"/>
        <path stroke="#00377B" stroke-width="3" d="M41.695 53.95c-3.985 0-7.215-3.22-7.215-7.19V8.697c0-3.972 3.23-7.19 7.215-7.19s7.215 3.218 7.215 7.19V46.76c0 3.97-3.23 7.19-7.215 7.19z"/>
        <path fill="#FEFEFE" d="M48.91 32.381H34.48V9.545c0-4.44 3.23-8.039 7.215-8.039s7.215 3.6 7.215 8.04V32.38z"/>
        <path stroke="#00377B" stroke-width="3" d="M48.91 32.381H34.48V9.545c0-4.44 3.23-8.039 7.215-8.039s7.215 3.6 7.215 8.04V32.38z"/>
        <path fill="#FEFEFE" d="M36.816 53.084a2.16 2.16 0 0 1-2.164 2.157 2.16 2.16 0 0 1-2.165-2.157 2.16 2.16 0 0 1 2.165-2.156 2.16 2.16 0 0 1 2.164 2.156M51.07 53.084a2.16 2.16 0 0 1-2.164 2.157 2.16 2.16 0 0 1-2.164-2.157 2.16 2.16 0 0 1 2.164-2.156 2.16 2.16 0 0 1 2.165 2.156"/>
        <path stroke="#FEFEFE" stroke-linecap="round" stroke-width="2.5" d="M49.632 59.492s-1.534 5.751-7.937 5.751c-6.403 0-7.937-5.75-7.937-5.75"/>
    </g>
</svg>
