<svg xmlns="http://www.w3.org/2000/svg" width="85" height="50" viewBox="0 0 85 50">
    <g fill="none" fill-rule="evenodd">
        <path fill="#00377B" d="M75.311 36.341H15.379a1.723 1.723 0 0 1-1.725-1.722V1.936c0-.951.772-1.722 1.725-1.722H75.31c.953 0 1.725.77 1.725 1.722v32.683c0 .951-.772 1.722-1.725 1.722"/>
        <path fill="#FEFEFE" d="M73.203 28.026V8.528a4.787 4.787 0 0 1-4.794-4.782H22.281a4.787 4.787 0 0 1-4.794 4.782v19.498a4.789 4.789 0 0 1 4.794 4.782h46.128a4.789 4.789 0 0 1 4.794-4.782"/>
        <path fill="#00377B" d="M82.615 43.627H22.683a1.723 1.723 0 0 1-1.725-1.722V9.221c0-.95.772-1.72 1.725-1.72h59.932c.954 0 1.725.77 1.725 1.72v32.684c0 .95-.771 1.722-1.725 1.722"/>
        <path fill="#FEFEFE" d="M80.508 35.312V15.814a4.787 4.787 0 0 1-4.795-4.782H29.585a4.787 4.787 0 0 1-4.794 4.782v19.498a4.789 4.789 0 0 1 4.794 4.782h46.128a4.789 4.789 0 0 1 4.795-4.782"/>
        <path fill="#377DC8" d="M61.704 25.563c0-4.987-4.054-9.03-9.054-9.03s-9.055 4.043-9.055 9.03c0 4.988 4.054 9.03 9.055 9.03 5 0 9.054-4.042 9.054-9.03"/>
        <path fill="#FEFEFE" d="M52.325 24.276l1.693.594c.697.247 1.189.584 1.476 1.01.286.427.43.983.43 1.669 0 .968-.223 1.642-.669 2.018-.445.38-1.223.577-2.335.595l-.132 1.426h-1.469l.133-1.466c-.609-.044-1.27-.14-1.984-.29l.132-1.478c1.472.035 2.466.052 2.977.052.528 0 .884-.054 1.065-.164.18-.11.27-.337.27-.68 0-.307-.062-.525-.185-.653-.123-.127-.353-.244-.687-.35l-1.8-.646c-.67-.246-1.148-.581-1.435-1.004-.286-.421-.43-.975-.43-1.662 0-.667.109-1.184.324-1.55.217-.365.538-.615.965-.751.429-.136 1.027-.21 1.794-.219l.119-1.187h1.468l-.133 1.24c.636.061 1.204.163 1.707.303l-.12 1.373c-.766-.026-1.71-.04-2.83-.04-.52 0-.869.046-1.045.139-.177.092-.264.324-.264.692 0 .3.068.515.204.648.138.131.39.258.761.381"/>
        <path fill="#00377B" stroke="#00377B" d="M43.65 49.367H2.502A1.5 1.5 0 0 1 1 47.87V22.823a1.5 1.5 0 0 1 1.502-1.498H43.65a1.5 1.5 0 0 1 1.502 1.498V47.87a1.5 1.5 0 0 1-1.502 1.497"/>
        <path fill="#FEFEFE" d="M2.725 47.647h40.701V23.046H2.725z"/>
        <path fill="#377DC8" d="M12.258 32.365H7.22a.65.65 0 0 1-.65-.648V26.69a.65.65 0 0 1 .65-.649h5.04c.358 0 .65.29.65.649v5.026a.65.65 0 0 1-.65.648"/>
        <path stroke="#377DC8" stroke-linejoin="round" stroke-width="1.5" d="M6.57 38.713h6.923M6.57 41.809h6.923M6.57 44.905h33.013M6.57 35.346h33.013M19.614 41.809h6.923"/>
        <path fill="#00377B" d="M33.322 32.321a3.864 3.864 0 0 1-2.31.759 3.881 3.881 0 0 1-3.887-3.876 3.881 3.881 0 0 1 3.887-3.877c.88 0 1.69.29 2.341.783"/>
        <path stroke="#00377B" stroke-linejoin="round" stroke-width="1.5" d="M33.322 32.321a3.864 3.864 0 0 1-2.31.759 3.881 3.881 0 0 1-3.887-3.876 3.881 3.881 0 0 1 3.887-3.877c.88 0 1.69.29 2.341.783"/>
        <path fill="#FEFEFE" d="M39.582 29.204a3.88 3.88 0 0 1-3.886 3.876 3.88 3.88 0 0 1-3.887-3.876 3.88 3.88 0 0 1 3.887-3.876 3.88 3.88 0 0 1 3.886 3.876"/>
        <path stroke="#00377B" stroke-linejoin="round" stroke-width="1.5" d="M39.582 29.204a3.88 3.88 0 0 1-3.886 3.876 3.88 3.88 0 0 1-3.887-3.876 3.88 3.88 0 0 1 3.887-3.876 3.88 3.88 0 0 1 3.886 3.876z"/>
    </g>
</svg>
