<svg xmlns="http://www.w3.org/2000/svg" width="23" height="26" viewBox="0 0 23 26">
    <path fill="#377DC8" fill-rule="nonzero" d="M19.167 18.378c-.971 0-1.84.391-2.505 1.005l-9.11-5.417c.064-.3.115-.6.115-.914a4.36 4.36 0 0 0-.115-.913l9.008-5.365a3.774 3.774 0 0 0 2.607 1.057c2.12 0 3.833-1.749 3.833-3.915C23 1.749 21.288 0 19.167 0c-2.121 0-3.834 1.749-3.834 3.916 0 .313.051.613.115.913L6.44 10.194a3.774 3.774 0 0 0-2.607-1.057C1.713 9.137 0 10.886 0 13.052c0 2.167 1.712 3.916 3.833 3.916 1.01 0 1.917-.405 2.607-1.057l9.098 5.43a3.757 3.757 0 0 0-.102.848c0 2.101 1.673 3.811 3.73 3.811 2.058 0 3.732-1.71 3.732-3.811 0-2.102-1.674-3.811-3.731-3.811z"/>
</svg>
