<svg xmlns="http://www.w3.org/2000/svg" xmlns:xlink="http://www.w3.org/1999/xlink" width="1024" height="330" viewBox="0 0 1024 330">
    <defs>
        <path id="a" d="M0 0h1024v330H0z"/>
    </defs>
    <g fill="none" fill-rule="evenodd">
        <mask id="b" fill="#fff">
            <use xlink:href="#a"/>
        </mask>
        <use fill="#F0F3F5" xlink:href="#a"/>
        <path fill="#DCE4E6" d="M1053.866 273.074c-.52-1.986-2.569-3.152-4.511-2.607l-25.567 7.05-18.355-10.621 28.692-10.506a3.758 3.758 0 0 0 2.43-3.516c-.018-1.585-.99-2.989-2.448-3.516l-28.656-10.366 18.286-10.636 25.581 6.995c.322.088.65.126.953.126a3.693 3.693 0 0 0 3.562-2.752c.539-1.981-.63-4.042-2.591-4.57l-18.484-5.063 16.9-9.835a3.778 3.778 0 0 0 1.368-5.1c-1.022-1.787-3.254-2.407-5.035-1.367l-16.896 9.834 4.98-18.722a3.735 3.735 0 0 0-2.592-4.574c-1.942-.527-3.972.639-4.51 2.644l-6.922 25.917-18.503 10.766 5.413-30.71a3.739 3.739 0 0 0-1.8-3.88c-1.348-.783-3.019-.62-4.225.383l-23.243 20.018v-21.422l18.733-18.997a3.755 3.755 0 0 0 0-5.264 3.653 3.653 0 0 0-5.215 0l-13.518 13.695v-19.743c0-2.056-1.657-3.735-3.686-3.735-2.035 0-3.687 1.679-3.687 3.735v19.743l-13.518-13.695c-1.459-1.46-3.778-1.46-5.214 0a3.747 3.747 0 0 0 0 5.264l18.732 18.997v21.548l-23.482-20.037a3.648 3.648 0 0 0-4.225-.364 3.739 3.739 0 0 0-1.758 3.899l5.5 30.603L927.87 222l-6.955-25.903c-.543-2.005-2.573-3.171-4.533-2.625-1.956.55-3.107 2.587-2.587 4.574l5.035 18.708-16.919-9.802a3.668 3.668 0 0 0-5.035 1.385c-1.008 1.786-.396 4.062 1.367 5.083l16.938 9.797-18.466 5.1c-1.96.546-3.111 2.607-2.591 4.59a3.709 3.709 0 0 0 3.562 2.75c.304 0 .645-.05.971-.125l25.563-7.07 18.36 10.623-28.697 10.524c-1.455.532-2.426 1.93-2.426 3.516 0 1.567.99 2.97 2.444 3.497l28.66 10.366-18.267 10.655-25.6-7.013c-1.96-.546-3.976.639-4.515 2.625-.52 2 .63 4.043 2.605 4.588l18.466 5.046-16.901 9.853c-1.763 1.02-2.37 3.315-1.367 5.082a3.686 3.686 0 0 0 3.203 1.88c.626 0 1.257-.169 1.832-.495l16.9-9.834-4.98 18.703c-.538 1.986.631 4.047 2.592 4.593.322.07.644.126.953.126a3.672 3.672 0 0 0 3.558-2.77l6.922-25.917 18.497-10.766-5.39 30.71a3.696 3.696 0 0 0 1.777 3.88 3.555 3.555 0 0 0 1.837.512c.86 0 1.707-.312 2.389-.895l23.247-20.018v21.422l-18.732 18.997a3.747 3.747 0 0 0 0 5.264 3.633 3.633 0 0 0 2.605 1.091c.934 0 1.887-.363 2.61-1.09l13.517-13.715v19.762c0 2.056 1.652 3.735 3.687 3.735 2.03 0 3.686-1.679 3.686-3.735v-19.762l13.518 13.714a3.667 3.667 0 0 0 2.61 1.091c.952 0 1.887-.363 2.605-1.09 1.436-1.456 1.436-3.806 0-5.284l-18.733-18.978v-21.567l23.478 20.037a3.651 3.651 0 0 0 4.225.383 3.762 3.762 0 0 0 1.763-3.899l-5.5-30.603L1020.138 284l6.96 25.903a3.708 3.708 0 0 0 3.557 2.751c.327 0 .649-.037.971-.126 1.96-.55 3.13-2.606 2.591-4.593l-5.035-18.703 16.919 9.797a3.529 3.529 0 0 0 1.832.494c1.28 0 2.517-.676 3.203-1.879a3.762 3.762 0 0 0-1.385-5.082l-16.92-9.797 18.466-5.102c1.961-.545 3.112-2.606 2.569-4.588zm-31.873-20.181l-24.955 9.14-15.626-9.052 15.663-9.106 24.918 9.018zm-24.076-42.042l-4.69 26.65-15.534 9.05v-18.307l20.224-17.393zm-47.986.089l20.39 17.416v18.214l-15.608-9.032-4.782-26.598zm-23.91 42.153l24.936-9.144 15.64 9.051-15.658 9.125-24.918-9.032zm24.075 42.056l4.69-26.668 15.534-9.032v18.288l-20.224 17.412zm47.982-.108l-20.385-17.397V259.43l15.603 9.032 4.782 26.58zM990.924 85.152a2.061 2.061 0 0 0-2.537-1.448l-14.381 3.917-10.325-5.901 16.14-5.837a2.089 2.089 0 0 0 1.366-1.953 2.09 2.09 0 0 0-1.377-1.953l-16.119-5.759 10.286-5.909 14.39 3.886a2.073 2.073 0 0 0 2.54-1.458 2.066 2.066 0 0 0-1.458-2.54l-10.398-2.813 9.507-5.463a2.085 2.085 0 0 0 .769-2.834 2.067 2.067 0 0 0-2.832-.76l-9.504 5.464 2.8-10.4a2.072 2.072 0 0 0-1.457-2.542 2.079 2.079 0 0 0-2.537 1.469l-3.894 14.398-10.407 5.981 3.045-17.06a2.068 2.068 0 0 0-1.013-2.156 2.093 2.093 0 0 0-2.376.212l-13.074 11.121v-11.9l10.536-10.554a2.068 2.068 0 0 0 0-2.925 2.073 2.073 0 0 0-2.933 0l-7.603 7.608V26.075A2.079 2.079 0 0 0 946.004 24a2.077 2.077 0 0 0-2.074 2.075v10.968l-7.604-7.608a2.073 2.073 0 0 0-2.933 0 2.063 2.063 0 0 0 0 2.925l10.537 10.554v11.97l-13.209-11.131a2.068 2.068 0 1 0-3.366 1.964l3.094 17.001-10.397-5.94-3.912-14.39a2.074 2.074 0 0 0-2.55-1.459 2.082 2.082 0 0 0-1.455 2.541l2.833 10.394-9.517-5.446a2.077 2.077 0 0 0-2.833.77 2.07 2.07 0 0 0 .77 2.824l9.527 5.442-10.387 2.834a2.09 2.09 0 0 0-1.458 2.55 2.082 2.082 0 0 0 2.55 1.458L918 60.369l10.327 5.9-16.142 5.848a2.07 2.07 0 0 0 .01 3.896l16.121 5.759-10.275 5.919-14.4-3.896a2.07 2.07 0 0 0-2.54 1.458 2.083 2.083 0 0 0 1.466 2.55l10.386 2.802-9.506 5.474a2.075 2.075 0 0 0-.769 2.824 2.078 2.078 0 0 0 2.832.77l9.507-5.464-2.801 10.39a2.083 2.083 0 0 0 1.457 2.552 2.6 2.6 0 0 0 .536.07c.92 0 1.758-.606 2.001-1.539l3.894-14.398 10.405-5.981-3.032 17.06c-.163.86.241 1.72 1 2.156.323.192.678.285 1.033.285.484 0 .96-.173 1.343-.497l13.077-11.121v11.9l-10.537 10.554c-.81.811-.81 2.117 0 2.925.404.404.93.606 1.465.606.526 0 1.062-.202 1.468-.606l7.604-7.619v10.979c0 1.142.93 2.075 2.074 2.075a2.079 2.079 0 0 0 2.074-2.075v-10.979l7.603 7.619a2.076 2.076 0 0 0 2.933 0 2.08 2.08 0 0 0 0-2.935l-10.536-10.544v-11.98l13.206 11.13a2.074 2.074 0 0 0 2.376.213 2.08 2.08 0 0 0 .992-2.165l-3.094-17.002 10.395 5.94 3.914 14.39a2.081 2.081 0 0 0 2.548 1.459 2.084 2.084 0 0 0 1.457-2.552l-2.832-10.39 9.517 5.442a2.078 2.078 0 0 0 2.832-.77 2.076 2.076 0 0 0-.78-2.823l-9.516-5.443 10.387-2.834a2.071 2.071 0 0 0 1.444-2.549zM972.996 73.94l-14.037 5.078-8.79-5.028 8.81-5.06 14.017 5.01zm-13.543-23.356l-2.638 14.805-8.737 5.028v-10.17l11.375-9.663zm-26.992.05l11.469 9.675v10.119l-8.779-5.018-2.69-14.777zm-13.45 23.418l14.027-5.08L941.836 74l-8.808 5.07-14.016-5.018zm13.543 23.364l2.638-14.815 8.738-5.018v10.16l-11.376 9.673zm26.99-.06l-11.466-9.665V77.572l8.776 5.018 2.69 14.766zM591.865 364.074c-.52-1.986-2.568-3.152-4.51-2.607l-25.567 7.05-18.355-10.621 28.692-10.506a3.758 3.758 0 0 0 2.43-3.516c-.018-1.585-.99-2.989-2.448-3.516l-28.656-10.366 18.286-10.636 25.581 6.995c.322.088.65.126.953.126a3.693 3.693 0 0 0 3.562-2.752c.539-1.981-.63-4.042-2.591-4.57l-18.484-5.063 16.9-9.834a3.778 3.778 0 0 0 1.368-5.102c-1.022-1.786-3.254-2.406-5.035-1.366l-16.896 9.834 4.98-18.722a3.735 3.735 0 0 0-2.592-4.574c-1.942-.527-3.972.639-4.51 2.644l-6.922 25.917-18.503 10.766 5.413-30.71a3.739 3.739 0 0 0-1.8-3.88c-1.348-.783-3.019-.62-4.225.383l-23.243 20.018v-21.422l18.733-18.997a3.755 3.755 0 0 0 0-5.264 3.653 3.653 0 0 0-5.215 0l-13.518 13.695v-19.743c0-2.056-1.657-3.735-3.686-3.735-2.035 0-3.687 1.679-3.687 3.735v19.743l-13.518-13.695c-1.459-1.46-3.778-1.46-5.214 0a3.747 3.747 0 0 0 0 5.264l18.732 18.997v21.548l-23.482-20.037a3.648 3.648 0 0 0-4.225-.364 3.739 3.739 0 0 0-1.758 3.899l5.5 30.603L465.87 313l-6.955-25.903c-.543-2.005-2.573-3.171-4.533-2.625-1.956.55-3.107 2.587-2.587 4.574l5.035 18.708-16.919-9.802a3.668 3.668 0 0 0-5.035 1.385c-1.008 1.786-.396 4.062 1.367 5.083l16.938 9.797-18.466 5.1c-1.96.546-3.111 2.607-2.591 4.59a3.709 3.709 0 0 0 3.562 2.75c.304 0 .645-.05.971-.125l25.563-7.07 18.36 10.623-28.697 10.524c-1.455.532-2.426 1.93-2.426 3.516 0 1.567.99 2.97 2.444 3.497l28.66 10.366-18.267 10.655-25.6-7.013c-1.96-.546-3.976.639-4.515 2.625-.52 2 .63 4.043 2.605 4.588l18.466 5.046-16.901 9.853c-1.763 1.02-2.37 3.315-1.367 5.082a3.686 3.686 0 0 0 3.203 1.88c.626 0 1.257-.169 1.832-.495l16.9-9.834-4.98 18.703c-.538 1.986.631 4.047 2.592 4.593.322.07.644.126.953.126a3.672 3.672 0 0 0 3.558-2.77l6.922-25.917 18.497-10.766-5.39 30.71a3.696 3.696 0 0 0 1.777 3.88 3.555 3.555 0 0 0 1.837.512c.86 0 1.707-.312 2.389-.895l23.247-20.018v21.422l-18.732 18.997a3.747 3.747 0 0 0 0 5.264 3.633 3.633 0 0 0 2.605 1.091c.934 0 1.887-.363 2.61-1.09l13.517-13.715v19.762c0 2.056 1.652 3.735 3.687 3.735 2.03 0 3.686-1.679 3.686-3.735v-19.762l13.518 13.714a3.667 3.667 0 0 0 2.61 1.091c.952 0 1.887-.363 2.605-1.09 1.436-1.456 1.436-3.806 0-5.284l-18.733-18.978v-21.567l23.478 20.037a3.651 3.651 0 0 0 4.225.383 3.762 3.762 0 0 0 1.763-3.899l-5.5-30.603L558.138 375l6.96 25.903a3.708 3.708 0 0 0 3.557 2.751c.327 0 .649-.037.971-.126 1.96-.55 3.13-2.606 2.591-4.593l-5.035-18.703 16.919 9.797a3.529 3.529 0 0 0 1.832.494c1.28 0 2.517-.676 3.203-1.879a3.762 3.762 0 0 0-1.385-5.082l-16.92-9.797 18.466-5.102c1.961-.545 3.112-2.606 2.568-4.588zm-31.872-20.181l-24.955 9.14-15.626-9.052 15.663-9.106 24.918 9.018zm-24.076-42.042l-4.69 26.65-15.534 9.05v-18.307l20.224-17.393zm-47.986.089l20.39 17.416v18.214l-15.608-9.032-4.782-26.598zm-23.91 42.153l24.936-9.144 15.64 9.051-15.658 9.125-24.918-9.032zm24.075 42.056l4.69-26.668 15.534-9.032v18.288l-20.224 17.412zm47.982-.108l-20.385-17.397V350.43l15.603 9.032 4.782 26.58zM591.865-3.926c-.52-1.986-2.568-3.152-4.51-2.607L561.788.517l-18.355-10.621 28.692-10.506a3.758 3.758 0 0 0 2.43-3.516c-.018-1.585-.99-2.989-2.448-3.516L543.45-38.008l18.286-10.636 25.581 6.995c.322.088.65.126.953.126a3.693 3.693 0 0 0 3.562-2.752c.539-1.981-.63-4.042-2.591-4.57l-18.484-5.063 16.9-9.835a3.778 3.778 0 0 0 1.368-5.1c-1.022-1.787-3.254-2.407-5.035-1.367l-16.896 9.834 4.98-18.722a3.735 3.735 0 0 0-2.592-4.574c-1.942-.527-3.972.639-4.51 2.644l-6.922 25.917-18.503 10.766 5.413-30.71a3.739 3.739 0 0 0-1.8-3.88c-1.348-.783-3.019-.62-4.225.383l-23.243 20.018v-21.422l18.733-18.997a3.755 3.755 0 0 0 0-5.264 3.653 3.653 0 0 0-5.215 0l-13.518 13.695v-19.743c0-2.056-1.657-3.735-3.686-3.735-2.035 0-3.687 1.679-3.687 3.735v19.743l-13.518-13.695c-1.459-1.46-3.778-1.46-5.214 0a3.747 3.747 0 0 0 0 5.264l18.732 18.997v21.548l-23.482-20.037a3.648 3.648 0 0 0-4.225-.364 3.739 3.739 0 0 0-1.758 3.899l5.5 30.603L465.87-55l-6.955-25.903c-.543-2.005-2.573-3.171-4.533-2.625-1.956.55-3.107 2.587-2.587 4.574l5.035 18.708-16.919-9.802a3.668 3.668 0 0 0-5.035 1.385c-1.008 1.786-.396 4.062 1.367 5.083l16.938 9.797-18.466 5.1c-1.96.546-3.111 2.607-2.591 4.59a3.709 3.709 0 0 0 3.562 2.75c.304 0 .645-.05.971-.125l25.563-7.07 18.36 10.623-28.697 10.524c-1.455.532-2.426 1.93-2.426 3.516 0 1.567.99 2.97 2.444 3.497l28.66 10.366L462.295.644l-25.6-7.013c-1.96-.546-3.976.639-4.515 2.625-.52 2 .63 4.043 2.605 4.588l18.466 5.046-16.901 9.853c-1.763 1.02-2.37 3.315-1.367 5.082a3.686 3.686 0 0 0 3.203 1.88c.626 0 1.257-.169 1.832-.495l16.9-9.834-4.98 18.703c-.538 1.986.631 4.047 2.592 4.593.322.07.644.126.953.126a3.672 3.672 0 0 0 3.558-2.77l6.922-25.917L484.46-3.655l-5.39 30.71a3.696 3.696 0 0 0 1.777 3.88 3.555 3.555 0 0 0 1.837.512c.86 0 1.707-.312 2.389-.895l23.247-20.018v21.422l-18.732 18.997a3.747 3.747 0 0 0 0 5.264 3.633 3.633 0 0 0 2.605 1.091c.934 0 1.887-.363 2.61-1.09l13.517-13.715v19.762c0 2.056 1.652 3.735 3.687 3.735 2.03 0 3.686-1.679 3.686-3.735V42.503l13.518 13.714a3.667 3.667 0 0 0 2.61 1.091c.952 0 1.887-.363 2.605-1.09 1.436-1.456 1.436-3.806 0-5.284l-18.733-18.978V10.389l23.478 20.037a3.651 3.651 0 0 0 4.225.383 3.762 3.762 0 0 0 1.763-3.899l-5.5-30.603L558.138 7l6.96 25.903a3.708 3.708 0 0 0 3.557 2.751c.327 0 .649-.037.971-.126 1.96-.55 3.13-2.606 2.591-4.593l-5.035-18.703 16.919 9.797a3.529 3.529 0 0 0 1.832.494c1.28 0 2.517-.676 3.203-1.879a3.762 3.762 0 0 0-1.385-5.082l-16.92-9.797L589.298.662c1.961-.545 3.112-2.606 2.568-4.588zm-31.872-20.181l-24.955 9.14-15.626-9.052 15.663-9.106 24.918 9.018zM535.917-66.15l-4.69 26.65-15.534 9.05v-18.307l20.224-17.393zm-47.986.089l20.39 17.416v18.214l-15.608-9.032-4.782-26.598zm-23.91 42.153l24.936-9.144L504.597-24l-15.658 9.125-24.918-9.032zm24.075 42.056l4.69-26.668 15.534-9.032V.737L488.096 18.15zm47.982-.108L515.693.644V-17.57l15.603 9.032 4.782 26.58zM763.943 89.864a1.559 1.559 0 0 0-1.917-1.086l-10.866 2.938-7.801-4.426 12.194-4.378a1.567 1.567 0 0 0 1.033-1.464 1.568 1.568 0 0 0-1.04-1.465l-12.18-4.32 7.772-4.431 10.872 2.914a1.565 1.565 0 0 0 1.919-1.094 1.548 1.548 0 0 0-1.101-1.904l-7.856-2.11 7.183-4.097a1.557 1.557 0 0 0 .58-2.126 1.568 1.568 0 0 0-2.139-.57l-7.18 4.098 2.116-7.8a1.553 1.553 0 0 0-1.102-1.906 1.572 1.572 0 0 0-1.917 1.101l-2.942 10.799-7.863 4.486 2.3-12.796a1.547 1.547 0 0 0-.764-1.616 1.591 1.591 0 0 0-1.796.159l-9.878 8.34v-8.925l7.96-7.915c.611-.608.611-1.588 0-2.194a1.574 1.574 0 0 0-2.215 0l-5.745 5.707v-8.227c0-.857-.705-1.556-1.567-1.556-.865 0-1.567.7-1.567 1.556v8.227l-5.745-5.707a1.574 1.574 0 0 0-2.216 0 1.54 1.54 0 0 0 0 2.194l7.961 7.915v8.978l-9.98-8.348a1.575 1.575 0 0 0-1.796-.152c-.565.327-.87.98-.747 1.624l2.338 12.752-7.856-4.455-2.956-10.793a1.568 1.568 0 0 0-1.926-1.094 1.56 1.56 0 0 0-1.1 1.906l2.14 7.795-7.19-4.084a1.576 1.576 0 0 0-2.14.577 1.546 1.546 0 0 0 .58 2.118l7.2 4.082-7.849 2.125a1.566 1.566 0 0 0-1.1 1.912 1.572 1.572 0 0 0 1.513 1.146c.13 0 .274-.021.413-.052l10.864-2.946 7.803 4.426-12.196 4.386a1.553 1.553 0 0 0-1.031 1.464c0 .653.42 1.238 1.038 1.458l12.18 4.319-7.763 4.44-10.88-2.923a1.565 1.565 0 0 0-1.918 1.094 1.561 1.561 0 0 0 1.107 1.912l7.847 2.102-7.182 4.105a1.55 1.55 0 0 0-.581 2.118 1.572 1.572 0 0 0 2.14.577l7.182-4.097-2.116 7.793a1.56 1.56 0 0 0 1.101 1.913c.137.03.274.053.405.053.695 0 1.328-.455 1.512-1.154l2.942-10.799 7.862-4.486-2.29 12.796a1.53 1.53 0 0 0 .754 1.616c.245.144.513.214.78.214.366 0 .726-.13 1.016-.373l9.88-8.34v8.925l-7.961 7.915a1.54 1.54 0 0 0 0 2.194 1.58 1.58 0 0 0 2.216 0l5.745-5.714v8.234c0 .857.702 1.556 1.567 1.556.862 0 1.567-.7 1.567-1.556v-8.234l5.745 5.714c.305.303.71.454 1.109.454a1.56 1.56 0 0 0 1.107-.454c.61-.606.61-1.586 0-2.202l-7.961-7.907v-8.986l9.978 8.349a1.576 1.576 0 0 0 1.795.159c.566-.334.87-.98.75-1.624l-2.338-12.752 7.854 4.455 2.957 10.793a1.57 1.57 0 0 0 1.512 1.147 1.562 1.562 0 0 0 1.514-1.966l-2.14-7.794 7.19 4.082c.245.144.513.206.78.206.543 0 1.07-.281 1.36-.783a1.55 1.55 0 0 0-.588-2.117l-7.19-4.082 7.847-2.126a1.552 1.552 0 0 0 1.092-1.912zm-13.546-8.409l-10.606 3.808-6.64-3.77 6.656-3.795 10.59 3.757zm-10.232-17.517l-1.994 11.104-6.601 3.771v-7.628l8.595-7.247zm-20.394.037l8.665 7.257v7.589l-6.633-3.764-2.032-11.082zm-10.162 17.564l10.598-3.81 6.647 3.771-6.655 3.802-10.59-3.763zm10.232 17.523l1.993-11.112 6.602-3.763v7.62l-8.595 7.255zm20.392-.045l-8.663-7.249V84.18l6.63 3.764 2.033 11.074zM338.943 129.864a1.559 1.559 0 0 0-1.917-1.086l-10.866 2.938-7.801-4.426 12.194-4.378a1.567 1.567 0 0 0 1.033-1.464 1.568 1.568 0 0 0-1.04-1.465l-12.18-4.32 7.772-4.431 10.872 2.914a1.565 1.565 0 0 0 1.919-1.094 1.548 1.548 0 0 0-1.101-1.904l-7.856-2.11 7.183-4.097a1.557 1.557 0 0 0 .58-2.126 1.568 1.568 0 0 0-2.139-.57l-7.18 4.098 2.116-7.8a1.553 1.553 0 0 0-1.102-1.906 1.572 1.572 0 0 0-1.917 1.101l-2.942 10.799-7.863 4.486 2.3-12.796a1.547 1.547 0 0 0-.764-1.616 1.591 1.591 0 0 0-1.796.159l-9.878 8.34v-8.925l7.96-7.915c.611-.608.611-1.588 0-2.194a1.574 1.574 0 0 0-2.215 0l-5.745 5.707v-8.227c0-.857-.705-1.556-1.567-1.556-.865 0-1.567.7-1.567 1.556v8.227l-5.745-5.707a1.574 1.574 0 0 0-2.216 0 1.54 1.54 0 0 0 0 2.194l7.961 7.915v8.978l-9.98-8.348a1.575 1.575 0 0 0-1.796-.152c-.565.327-.87.98-.747 1.624l2.338 12.752-7.856-4.455-2.956-10.793a1.568 1.568 0 0 0-1.926-1.094 1.56 1.56 0 0 0-1.1 1.906l2.14 7.795-7.19-4.084a1.576 1.576 0 0 0-2.14.577 1.546 1.546 0 0 0 .58 2.118l7.2 4.082-7.849 2.125a1.566 1.566 0 0 0-1.1 1.912 1.572 1.572 0 0 0 1.513 1.146c.13 0 .274-.021.413-.052l10.864-2.946 7.803 4.426-12.196 4.386a1.553 1.553 0 0 0-1.031 1.464c0 .653.42 1.238 1.038 1.458l12.18 4.319-7.763 4.44-10.88-2.923a1.565 1.565 0 0 0-1.918 1.094 1.561 1.561 0 0 0 1.107 1.912l7.847 2.102-7.182 4.105a1.55 1.55 0 0 0-.581 2.118 1.572 1.572 0 0 0 2.14.577l7.182-4.097-2.116 7.793a1.56 1.56 0 0 0 1.101 1.913c.137.03.274.053.405.053.695 0 1.328-.455 1.512-1.154l2.942-10.799 7.862-4.486-2.29 12.796a1.53 1.53 0 0 0 .754 1.616c.245.144.513.214.78.214.366 0 .726-.13 1.016-.373l9.88-8.34v8.925l-7.961 7.915a1.54 1.54 0 0 0 0 2.194 1.58 1.58 0 0 0 2.216 0l5.745-5.714v8.234c0 .857.702 1.556 1.567 1.556.862 0 1.567-.7 1.567-1.556v-8.234l5.745 5.714c.305.303.71.454 1.109.454a1.56 1.56 0 0 0 1.107-.454c.61-.606.61-1.586 0-2.202l-7.961-7.907v-8.986l9.978 8.349a1.576 1.576 0 0 0 1.795.159c.566-.334.87-.98.75-1.624l-2.338-12.752 7.854 4.455 2.957 10.793a1.57 1.57 0 0 0 1.512 1.147 1.562 1.562 0 0 0 1.514-1.966l-2.14-7.794 7.19 4.082c.245.144.513.206.78.206.543 0 1.07-.281 1.36-.783a1.55 1.55 0 0 0-.588-2.117l-7.19-4.082 7.847-2.126a1.552 1.552 0 0 0 1.092-1.912zm-13.546-8.409l-10.606 3.808-6.64-3.77 6.656-3.795 10.59 3.757zm-10.232-17.517l-1.994 11.104-6.601 3.771v-7.628l8.595-7.247zm-20.394.037l8.665 7.257v7.589l-6.633-3.764-2.032-11.082zm-10.162 17.564l10.598-3.81 6.647 3.771-6.655 3.802-10.59-3.763zm10.232 17.523l1.993-11.112 6.602-3.763v7.62l-8.595 7.255zm20.392-.045l-8.663-7.249v-7.589l6.63 3.764 2.033 11.074zM131.924 185.152a2.061 2.061 0 0 0-2.537-1.448l-14.381 3.917-10.325-5.901 16.14-5.837a2.089 2.089 0 0 0 1.366-1.953 2.09 2.09 0 0 0-1.377-1.953l-16.119-5.759 10.286-5.909 14.39 3.886a2.073 2.073 0 0 0 2.54-1.458 2.066 2.066 0 0 0-1.458-2.54l-10.398-2.813 9.507-5.463a2.085 2.085 0 0 0 .769-2.834 2.067 2.067 0 0 0-2.832-.76l-9.504 5.464 2.8-10.4a2.072 2.072 0 0 0-1.457-2.542 2.079 2.079 0 0 0-2.537 1.469l-3.894 14.398-10.407 5.981 3.045-17.06a2.068 2.068 0 0 0-1.013-2.156 2.093 2.093 0 0 0-2.376.212l-13.074 11.121v-11.9l10.536-10.554a2.068 2.068 0 0 0 0-2.925 2.073 2.073 0 0 0-2.933 0l-7.603 7.608v-10.968A2.079 2.079 0 0 0 87.004 124a2.077 2.077 0 0 0-2.074 2.075v10.968l-7.604-7.608a2.073 2.073 0 0 0-2.933 0 2.063 2.063 0 0 0 0 2.925l10.537 10.554v11.97l-13.209-11.131a2.068 2.068 0 1 0-3.366 1.964l3.094 17.001-10.397-5.94-3.912-14.39a2.074 2.074 0 0 0-2.55-1.459 2.082 2.082 0 0 0-1.455 2.541l2.833 10.394-9.517-5.446a2.077 2.077 0 0 0-2.833.77 2.07 2.07 0 0 0 .77 2.824l9.527 5.442-10.387 2.834a2.09 2.09 0 0 0-1.458 2.55 2.082 2.082 0 0 0 2.55 1.458L59 160.369l10.327 5.9-16.142 5.848a2.07 2.07 0 0 0 .01 3.896l16.121 5.759-10.275 5.919-14.4-3.896a2.07 2.07 0 0 0-2.54 1.458 2.083 2.083 0 0 0 1.466 2.55l10.386 2.802-9.506 5.474a2.075 2.075 0 0 0-.769 2.824 2.078 2.078 0 0 0 2.832.77l9.507-5.464-2.801 10.39a2.083 2.083 0 0 0 1.457 2.552 2.6 2.6 0 0 0 .536.07c.92 0 1.758-.606 2.001-1.539l3.894-14.398 10.405-5.981-3.032 17.06c-.163.86.241 1.72 1 2.156.323.192.678.285 1.033.285.484 0 .96-.173 1.343-.497l13.077-11.121v11.9L74.393 215.64c-.81.811-.81 2.117 0 2.925.404.404.93.606 1.465.606.526 0 1.062-.202 1.468-.606l7.604-7.619v10.979c0 1.142.93 2.075 2.074 2.075a2.079 2.079 0 0 0 2.074-2.075v-10.979l7.603 7.619a2.076 2.076 0 0 0 2.933 0 2.08 2.08 0 0 0 0-2.935l-10.536-10.544v-11.98l13.206 11.13a2.074 2.074 0 0 0 2.376.213 2.08 2.08 0 0 0 .992-2.165l-3.094-17.002 10.395 5.94 3.914 14.39a2.081 2.081 0 0 0 2.548 1.459 2.084 2.084 0 0 0 1.457-2.552l-2.832-10.39 9.517 5.442a2.078 2.078 0 0 0 2.832-.77 2.076 2.076 0 0 0-.78-2.823l-9.516-5.443 10.387-2.834a2.071 2.071 0 0 0 1.444-2.549zm-17.928-11.212l-14.037 5.078-8.79-5.028 8.81-5.06 14.017 5.01zm-13.543-23.356l-2.638 14.805-8.737 5.028v-10.17l11.375-9.663zm-26.992.05l11.469 9.675v10.119l-8.779-5.018-2.69-14.777zm-13.45 23.418l14.027-5.08L82.836 174l-8.808 5.07-14.016-5.018zm13.543 23.364l2.638-14.815 8.738-5.018v10.16l-11.376 9.673zm26.99-.06l-11.466-9.665v-10.119l8.776 5.018 2.69 14.766zM189.865 24.074c-.52-1.986-2.568-3.152-4.51-2.607l-25.567 7.05-18.355-10.621L170.125 7.39a3.758 3.758 0 0 0 2.43-3.516c-.018-1.585-.99-2.989-2.448-3.516L141.45-10.008l18.286-10.636 25.581 6.995c.322.088.65.126.953.126a3.693 3.693 0 0 0 3.562-2.752c.539-1.981-.63-4.042-2.591-4.57l-18.484-5.063 16.9-9.835a3.778 3.778 0 0 0 1.368-5.1c-1.022-1.787-3.254-2.407-5.035-1.367l-16.896 9.834 4.98-18.722a3.735 3.735 0 0 0-2.592-4.574c-1.942-.527-3.972.639-4.51 2.644l-6.922 25.917-18.503 10.766 5.413-30.71a3.739 3.739 0 0 0-1.8-3.88c-1.348-.783-3.019-.62-4.225.383l-23.243 20.018v-21.422l18.733-18.997a3.755 3.755 0 0 0 0-5.264 3.653 3.653 0 0 0-5.215 0l-13.518 13.695v-19.743c0-2.056-1.657-3.735-3.686-3.735-2.035 0-3.687 1.679-3.687 3.735v19.743L92.802-76.217c-1.459-1.46-3.778-1.46-5.214 0a3.747 3.747 0 0 0 0 5.264l18.732 18.997v21.548L82.838-50.445a3.648 3.648 0 0 0-4.225-.364 3.739 3.739 0 0 0-1.758 3.899l5.5 30.603L63.87-27l-6.955-25.903c-.543-2.005-2.573-3.171-4.533-2.625-1.956.55-3.107 2.587-2.587 4.574l5.035 18.708-16.919-9.802a3.668 3.668 0 0 0-5.035 1.385c-1.008 1.786-.396 4.062 1.367 5.083l16.938 9.797-18.466 5.1c-1.96.546-3.111 2.607-2.591 4.59a3.709 3.709 0 0 0 3.562 2.75c.304 0 .645-.05.971-.125l25.563-7.07L78.58-9.914 49.884.61c-1.455.532-2.426 1.93-2.426 3.516 0 1.567.99 2.97 2.444 3.497l28.66 10.366-18.267 10.655-25.6-7.013c-1.96-.546-3.976.639-4.515 2.625-.52 2 .63 4.043 2.605 4.588l18.466 5.046-16.901 9.853c-1.763 1.02-2.37 3.315-1.367 5.082a3.686 3.686 0 0 0 3.203 1.88c.626 0 1.257-.169 1.832-.495l16.9-9.834-4.98 18.703c-.538 1.986.631 4.047 2.592 4.593.322.07.644.126.953.126a3.672 3.672 0 0 0 3.558-2.77l6.922-25.917L82.46 24.345l-5.39 30.71a3.696 3.696 0 0 0 1.777 3.88 3.555 3.555 0 0 0 1.837.512c.86 0 1.707-.312 2.389-.895l23.247-20.018v21.422L87.588 78.953a3.747 3.747 0 0 0 0 5.264 3.633 3.633 0 0 0 2.605 1.091c.934 0 1.887-.363 2.61-1.09l13.517-13.715v19.762c0 2.056 1.652 3.735 3.687 3.735 2.03 0 3.686-1.679 3.686-3.735V70.503l13.518 13.714a3.667 3.667 0 0 0 2.61 1.091c.952 0 1.887-.363 2.605-1.09 1.436-1.456 1.436-3.806 0-5.284l-18.733-18.978V38.389l23.478 20.037a3.651 3.651 0 0 0 4.225.383 3.762 3.762 0 0 0 1.763-3.899l-5.5-30.603L156.138 35l6.96 25.903a3.708 3.708 0 0 0 3.557 2.751c.327 0 .649-.037.971-.126 1.96-.55 3.13-2.606 2.591-4.593l-5.035-18.703 16.919 9.797a3.529 3.529 0 0 0 1.832.494c1.28 0 2.517-.676 3.203-1.879a3.762 3.762 0 0 0-1.385-5.082l-16.92-9.797 18.466-5.102c1.961-.545 3.112-2.606 2.568-4.588zM157.993 3.893l-24.955 9.14-15.626-9.052 15.663-9.106 24.918 9.018zM133.917-38.15l-4.69 26.65-15.534 9.05v-18.307l20.224-17.393zm-47.986.089l20.39 17.416V-2.43l-15.608-9.032L85.93-38.06zM62.02 4.093L86.957-5.05 102.597 4l-15.658 9.125L62.02 4.093zM86.096 46.15l4.69-26.668 15.534-9.032v18.288L86.096 46.15zm47.982-.108l-20.385-17.397V10.43l15.603 9.032 4.782 26.58z" mask="url(#b)" opacity=".5"/>
    </g>
</svg>
