<svg xmlns="http://www.w3.org/2000/svg" width="103" height="58" viewBox="0 0 103 58">
    <g fill="none" fill-rule="evenodd">
        <path fill="#00377A" d="M90.215 57.976h11.81v-6.76h-11.81z"/>
        <path fill="#727276" d="M86.534 55.135l.562-1.578.535 1.578h-1.097zm2.69 1.647h-.046a.366.366 0 0 1-.22-.079.563.563 0 0 1-.18-.246l-1.523-4.014a.107.107 0 0 0-.1-.07h-.051a.107.107 0 0 0-.107.107c0 .044-.026.18-.203.608l-1.282 3.364a.604.604 0 0 1-.187.251.359.359 0 0 1-.215.08h-.051a.107.107 0 0 0-.107.106v.063c0 .059.048.107.107.107H86.2a.107.107 0 0 0 .107-.107v-.063a.107.107 0 0 0-.107-.107h-.052c-.056 0-.077-.02-.091-.039a.181.181 0 0 1-.04-.095.4.4 0 0 1 .016-.111l.356-1h1.382l.338.988c.012.04.018.08.018.12 0 .027-.014.06-.04.098-.014.02-.036.04-.092.04h-.051a.107.107 0 0 0-.107.106v.063c0 .059.048.107.107.107h1.278a.107.107 0 0 0 .107-.107v-.063a.107.107 0 0 0-.107-.107zM84.377 56.782h-.074a.226.226 0 0 1-.175-.078.302.302 0 0 1-.082-.203v-3.645h.968a.21.21 0 0 1 .152.08c.047.054.07.115.07.19v.106c0 .054.04.1.095.106l.057.006a.107.107 0 0 0 .118-.106v-.789a.107.107 0 0 0-.152-.096 1.823 1.823 0 0 1-.642.102h-1.92c-.11 0-.234-.012-.368-.036a1.309 1.309 0 0 1-.27-.068.107.107 0 0 0-.151.098v.79a.107.107 0 0 0 .119.105l.056-.006a.107.107 0 0 0 .096-.106v-.107c0-.074.022-.137.068-.19a.204.204 0 0 1 .149-.079h.972v3.647a.298.298 0 0 1-.082.2.226.226 0 0 1-.175.08h-.073a.107.107 0 0 0-.107.106v.063c0 .059.048.107.107.107h1.244a.107.107 0 0 0 .107-.107v-.063a.107.107 0 0 0-.107-.107M80.345 53.89a.652.652 0 0 1-.196-.476c0-.187.055-.338.168-.46a.526.526 0 0 1 .407-.179c.166 0 .297.048.4.146a.511.511 0 0 1 .152.392c0 .06.048.107.107.107h.05c.06 0 .108-.048.108-.107v-.77a.107.107 0 0 0-.107-.107h-.21a2.308 2.308 0 0 0-.5-.062c-.339 0-.612.119-.812.353-.196.23-.295.51-.295.83 0 .324.113.605.337.833l1.091 1.115c.128.13.191.298.191.51a.717.717 0 0 1-.2.524.673.673 0 0 1-.511.206.58.58 0 0 1-.475-.215.852.852 0 0 1-.185-.568c0-.043.001-.086.005-.129a.107.107 0 0 0-.107-.115h-.05a.107.107 0 0 0-.103.076c-.06.197-.09.386-.09.563 0 .175.006.292.02.358a.106.106 0 0 0 .023.05c.116.132.279.23.485.292.196.06.385.09.562.09.352 0 .639-.121.852-.359.21-.234.317-.535.317-.895 0-.361-.106-.652-.314-.863l-1.12-1.14zM74.966 54.667a.102.102 0 0 0-.01.01V52.87h.256c.133 0 .247.002.335.006.18.01.32.087.426.232.111.152.171.36.178.613v.141c0 .063-.01.133-.03.206-.108.375-.365.563-.79.574a1.697 1.697 0 0 1-.28 0 .107.107 0 0 0-.085.026m3.996-2.206h-1.244a.107.107 0 0 0-.107.107v.063c0 .059.048.106.107.106h.074c.069 0 .124.025.174.08.053.055.08.123.083.202v3.472a.317.317 0 0 1-.084.21.222.222 0 0 1-.173.081h-.074a.107.107 0 0 0-.054.015.106.106 0 0 0-.054-.015.665.665 0 0 1-.43-.163 1.629 1.629 0 0 1-.129-.12 5.493 5.493 0 0 1-.205-.238c-.095-.115-.307-.43-.63-.94a2.333 2.333 0 0 0-.244-.308c.196-.056.368-.181.516-.373.2-.262.303-.577.303-.935 0-.363-.11-.663-.324-.893-.218-.233-.517-.35-.89-.35h-1.535a.107.107 0 0 0-.107.106v.063c0 .059.048.106.107.106h.074c.068 0 .123.026.173.081.053.059.08.128.084.207v3.472a.306.306 0 0 1-.082.207.227.227 0 0 1-.175.078h-.074a.107.107 0 0 0-.107.107v.063c0 .059.048.107.107.107h1.244a.107.107 0 0 0 .107-.117l-.006-.062a.107.107 0 0 0-.106-.098h-.069a.228.228 0 0 1-.179-.08.294.294 0 0 1-.077-.207V54.88c.02.023.048.037.08.037.088 0 .183.059.282.174.04.048.078.098.115.148.025.034.114.17.399.624.235.373.375.588.43.657.054.068.118.14.19.21.08.079.193.151.346.222.154.07.322.107.5.107h.312c.02 0 .038-.006.054-.015.016.009.034.015.054.015h1.244a.107.107 0 0 0 .107-.107v-.063a.107.107 0 0 0-.107-.107h-.074a.23.23 0 0 1-.177-.081.289.289 0 0 1-.08-.206v-3.472a.305.305 0 0 1 .083-.207.226.226 0 0 1 .174-.079h.074a.107.107 0 0 0 .107-.106v-.063a.107.107 0 0 0-.107-.107M69.995 54.76c0-.6.141-1.087.419-1.45a1.28 1.28 0 0 1 1.077-.535c.294 0 .557.08.782.24.226.16.404.393.528.69.127.303.19.658.19 1.055 0 .6-.14 1.087-.418 1.45-.274.36-.627.535-1.08.535-.451 0-.804-.175-1.08-.534-.277-.364-.418-.852-.418-1.451m1.496-2.386c-.635 0-1.158.223-1.554.665-.393.437-.593 1.016-.593 1.721 0 .704.2 1.284.593 1.721.396.442.919.665 1.554.665s1.158-.223 1.556-.665c.396-.437.596-1.017.596-1.721 0-.705-.2-1.284-.596-1.722-.398-.44-.921-.664-1.556-.664M69.427 52.63v-.062a.107.107 0 0 0-.107-.107h-1.26a.107.107 0 0 0-.108.107v.063c0 .059.048.106.107.106h.068c.03 0 .066.009.1.072.018.03.026.056.026.078a.19.19 0 0 1-.016.077l-.811 1.57-.758-1.56a.19.19 0 0 1 .002-.168c.033-.06.067-.069.1-.069h.073a.107.107 0 0 0 .107-.106v-.063a.107.107 0 0 0-.107-.107h-1.398a.107.107 0 0 0-.106.107v.063c0 .059.047.106.106.106h.08c.092 0 .18.03.266.088.09.062.16.136.208.22l1.072 1.974v1.478a.306.306 0 0 1-.082.207.226.226 0 0 1-.174.078h-.074a.107.107 0 0 0-.107.107v.063c0 .059.048.107.107.107h1.239a.107.107 0 0 0 .106-.107v-.063a.107.107 0 0 0-.106-.107h-.069a.228.228 0 0 1-.179-.08.294.294 0 0 1-.077-.207v-1.47l1.104-1.976a.822.822 0 0 1 .221-.227.449.449 0 0 1 .26-.085h.08a.107.107 0 0 0 .107-.106M63.444 55.135l.562-1.578.535 1.578h-1.097zm2.689 1.647h-.045a.366.366 0 0 1-.221-.079.563.563 0 0 1-.18-.246l-1.522-4.014a.107.107 0 0 0-.1-.07h-.051a.107.107 0 0 0-.107.107c0 .044-.026.18-.204.608l-1.282 3.364a.604.604 0 0 1-.187.251.359.359 0 0 1-.215.08h-.05l-.018.001a.104.104 0 0 0-.017-.002h-.09a.296.296 0 0 1-.14-.032c-.1-.05-.154-.135-.17-.267l-.437-4.014a.107.107 0 0 0-.106-.095h-.051a.107.107 0 0 0-.1.066l-1.452 3.538-1.486-3.539a.107.107 0 0 0-.098-.065h-.057c-.055 0-.1.04-.107.095l-.425 4.012a.345.345 0 0 1-.106.223.288.288 0 0 1-.203.078h-.091a.107.107 0 0 0-.107.107v.063c0 .059.048.107.107.107h1.102a.107.107 0 0 0 .107-.107v-.057a.107.107 0 0 0-.107-.106h-.09c-.02 0-.044-.005-.077-.045a.139.139 0 0 1-.033-.11l.21-2.622 1.284 3.069c.016.04.055.065.098.065h.057c.054 0 .1-.04.106-.093.021-.16.084-.366.186-.612l1.024-2.51.22 2.707a.137.137 0 0 1-.034.106c-.032.04-.06.045-.082.045h-.085a.107.107 0 0 0-.107.106v.057c0 .059.048.107.107.107h1.233l.017-.002.017.002h1.142a.107.107 0 0 0 .107-.107v-.063a.107.107 0 0 0-.107-.107h-.05c-.057 0-.079-.02-.092-.039a.181.181 0 0 1-.04-.095.4.4 0 0 1 .016-.111l.355-1h1.382l.338.988c.012.04.018.08.018.12 0 .027-.013.06-.04.098-.013.02-.035.04-.091.04h-.051a.107.107 0 0 0-.107.106v.063c0 .059.048.107.107.107h1.278a.107.107 0 0 0 .107-.107v-.063a.107.107 0 0 0-.107-.107zM52.728 54.667a.102.102 0 0 0-.01.01V52.87h.256c.133 0 .246.002.335.006.18.01.32.087.425.232.112.153.172.36.179.613v.141c0 .064-.01.133-.03.206-.108.375-.365.563-.79.574a1.697 1.697 0 0 1-.28 0 .107.107 0 0 0-.085.026m2.644 2.115a.663.663 0 0 1-.43-.163 1.636 1.636 0 0 1-.129-.12 5.414 5.414 0 0 1-.205-.238c-.095-.115-.307-.43-.63-.94a2.347 2.347 0 0 0-.244-.308c.196-.056.368-.181.515-.373.202-.262.304-.577.304-.935 0-.363-.11-.663-.324-.893-.218-.233-.517-.35-.891-.35h-1.534a.107.107 0 0 0-.107.106v.063c0 .059.048.106.107.106h.074c.068 0 .123.026.173.081.053.059.08.128.083.207v3.472a.306.306 0 0 1-.082.207.227.227 0 0 1-.174.078h-.074a.107.107 0 0 0-.107.107v.063c0 .059.048.107.107.107h1.244a.107.107 0 0 0 .107-.117l-.006-.062a.107.107 0 0 0-.107-.098h-.068a.228.228 0 0 1-.18-.08.294.294 0 0 1-.076-.207V54.88c.02.023.048.037.08.037.088 0 .183.059.282.174.039.048.078.097.114.148.026.035.116.172.4.624.235.373.375.588.43.657.054.068.118.14.19.21.08.079.193.151.346.222.154.07.322.107.5.107h.312a.107.107 0 0 0 .107-.107v-.063a.107.107 0 0 0-.107-.107M47.757 54.76c0-.6.141-1.087.419-1.45a1.28 1.28 0 0 1 1.077-.535c.294 0 .557.08.781.24.227.16.405.393.529.69.127.303.19.658.19 1.055 0 .6-.14 1.087-.418 1.45-.274.36-.628.535-1.08.535-.451 0-.805-.175-1.08-.534-.277-.364-.418-.852-.418-1.451m1.496-2.386c-.635 0-1.158.223-1.554.665-.394.437-.593 1.016-.593 1.721 0 .704.2 1.284.593 1.721.396.442.919.665 1.554.665.634 0 1.158-.223 1.556-.665.396-.437.596-1.017.596-1.721 0-.705-.2-1.284-.596-1.722-.398-.44-.922-.664-1.556-.664M43.485 52.863h1.012c.451 0 .806.167 1.085.511.28.346.422.813.422 1.386 0 .38-.065.718-.193 1.006a1.531 1.531 0 0 1-.53.66 1.36 1.36 0 0 1-.784.231h-1.012v-3.794zm2.565.236c-.397-.423-.919-.638-1.553-.638h-1.926a.107.107 0 0 0-.106.117l.005.062a.107.107 0 0 0 .107.097h.068c.067 0 .126.025.18.075a.226.226 0 0 1 .077.176v3.503a.317.317 0 0 1-.083.21.222.222 0 0 1-.174.081h-.074a.107.107 0 0 0-.107.107v.063c0 .059.048.107.107.107h1.926c.634 0 1.157-.215 1.553-.639.394-.421.594-.98.594-1.66 0-.68-.2-1.239-.594-1.66zM41.895 52.461H40.65a.107.107 0 0 0-.107.107v.063c0 .059.048.106.107.106h.073c.07 0 .125.025.175.08.053.055.08.123.082.202v3.472a.318.318 0 0 1-.083.21.223.223 0 0 1-.174.081h-.073a.107.107 0 0 0-.107.107v.063c0 .059.048.107.107.107h1.244a.107.107 0 0 0 .107-.107v-.063a.107.107 0 0 0-.107-.107h-.074a.23.23 0 0 1-.177-.082.288.288 0 0 1-.08-.205v-3.472a.305.305 0 0 1 .083-.207.226.226 0 0 1 .174-.079h.074a.107.107 0 0 0 .107-.106v-.063a.107.107 0 0 0-.107-.107M40.1 52.461h-1.052a.107.107 0 0 0-.106.107v.063c0 .059.047.106.106.106h.091a.18.18 0 0 1 .135.054.204.204 0 0 1 .06.14v2.474c0 .401-.108.729-.32.973a1.03 1.03 0 0 1-.824.36.966.966 0 0 1-.805-.379c-.205-.258-.31-.607-.31-1.035v-2.388a.206.206 0 0 1 .06-.145.18.18 0 0 1 .135-.054h.09a.107.107 0 0 0 .108-.106v-.063a.107.107 0 0 0-.107-.107h-1.153a.107.107 0 0 0-.107.107v.063c0 .059.048.106.107.106h.09c.04 0 .073.008.1.023.065.04.095.096.095.184v2.467c0 .515.156.937.464 1.255.31.319.717.48 1.21.48.495 0 .898-.163 1.198-.485.298-.32.45-.742.45-1.256V52.93a.192.192 0 0 1 .06-.138.182.182 0 0 1 .134-.055h.09a.107.107 0 0 0 .107-.106v-.063a.107.107 0 0 0-.106-.107M34.626 54.19a.976.976 0 0 1-.154.147.495.495 0 0 1-.168.082 1.51 1.51 0 0 1-.315.053h-.054a.107.107 0 0 0-.086.043v-1.64h.194c.24 0 .415.065.537.197.123.134.185.326.185.57 0 .248-.047.433-.14.548m-.684.551c.41 0 .718.092.914.272a.81.81 0 0 1 .182.285c.05.122.075.268.075.433 0 .288-.07.511-.21.663-.14.152-.333.226-.592.226h-.461v-1.925a.116.116 0 0 0 .092.046m1.027-.205c.087-.062.165-.141.235-.236.134-.183.202-.414.202-.686 0-.348-.12-.63-.36-.841-.235-.207-.564-.312-.98-.312h-1.13a.107.107 0 0 0-.107.117l.006.062a.107.107 0 0 0 .107.097h.068c.07 0 .126.026.178.08a.278.278 0 0 1 .078.202v3.478a.306.306 0 0 1-.082.207.226.226 0 0 1-.174.078h-.068a.107.107 0 0 0-.107.098l-.006.062a.107.107 0 0 0 .107.117h1.386c.442 0 .795-.117 1.047-.348.255-.233.384-.536.384-.902 0-.359-.096-.662-.284-.902a1.17 1.17 0 0 0-.5-.37M28.263 54.667a.102.102 0 0 0-.01.01V52.87h.256c.133 0 .246.002.334.006.18.01.32.087.426.232.111.152.171.36.178.613v.141c0 .064-.01.133-.03.206-.107.375-.365.563-.79.574a1.689 1.689 0 0 1-.28 0 .107.107 0 0 0-.084.026m3.996-2.206h-1.245a.107.107 0 0 0-.106.107v.063c0 .059.047.106.106.106h.074c.07 0 .125.025.175.08.052.055.08.123.082.202v3.472a.318.318 0 0 1-.083.21.223.223 0 0 1-.174.081h-.074a.107.107 0 0 0-.053.015.106.106 0 0 0-.054-.015.665.665 0 0 1-.43-.163 1.63 1.63 0 0 1-.13-.12 5.469 5.469 0 0 1-.205-.238c-.095-.115-.306-.43-.63-.94a2.331 2.331 0 0 0-.243-.308c.195-.056.368-.181.515-.373.201-.262.303-.577.303-.935 0-.363-.109-.663-.324-.893-.217-.233-.517-.35-.89-.35h-1.535a.107.107 0 0 0-.106.106v.063c0 .059.047.106.106.106h.074c.069 0 .124.026.174.081.053.059.08.128.083.207v3.472a.305.305 0 0 1-.082.207.226.226 0 0 1-.175.078h-.074a.107.107 0 0 0-.106.107v.063c0 .059.047.107.106.107h1.245a.107.107 0 0 0 .106-.117l-.005-.062a.107.107 0 0 0-.107-.098h-.068a.228.228 0 0 1-.18-.08.294.294 0 0 1-.077-.207V54.88c.02.023.049.037.08.037.089 0 .184.059.282.174.04.048.079.098.115.148.025.035.115.172.4.624.234.373.375.588.43.657.053.068.117.139.19.21.08.079.193.151.346.222.153.07.321.107.5.107h.312c.02 0 .038-.006.054-.015.015.009.034.015.053.015h1.245a.107.107 0 0 0 .107-.107v-.063a.107.107 0 0 0-.107-.107h-.074a.23.23 0 0 1-.178-.082.288.288 0 0 1-.079-.205v-3.472a.305.305 0 0 1 .082-.207.226.226 0 0 1 .175-.079h.074a.107.107 0 0 0 .107-.106v-.063a.107.107 0 0 0-.107-.107M26.947 52.359a.107.107 0 0 0-.103-.006 1.82 1.82 0 0 1-.642.102h-1.92c-.11 0-.234-.012-.368-.036a1.304 1.304 0 0 1-.27-.067.107.107 0 0 0-.151.097v.79a.107.107 0 0 0 .119.105l.057-.006a.107.107 0 0 0 .095-.106v-.106c0-.075.022-.137.068-.191a.203.203 0 0 1 .149-.079h.972v3.647a.298.298 0 0 1-.082.2.226.226 0 0 1-.174.08h-.074a.107.107 0 0 0-.107.106v.063c0 .059.048.107.107.107h1.244a.107.107 0 0 0 .107-.107v-.063a.107.107 0 0 0-.107-.107h-.074a.226.226 0 0 1-.175-.078.302.302 0 0 1-.082-.203v-3.645h.968a.21.21 0 0 1 .152.08c.047.054.07.115.07.19v.106c0 .054.04.1.095.106l.057.006a.107.107 0 0 0 .118-.106v-.789a.107.107 0 0 0-.05-.09M21.835 53.89a.651.651 0 0 1-.196-.476c0-.187.055-.338.168-.46a.527.527 0 0 1 .407-.179c.166 0 .297.048.4.146a.511.511 0 0 1 .152.392c0 .06.048.107.107.107h.05c.06 0 .108-.048.108-.107v-.77a.107.107 0 0 0-.107-.107h-.21a2.31 2.31 0 0 0-.5-.062c-.338 0-.611.119-.812.353-.196.23-.295.51-.295.83 0 .325.113.605.337.833l1.091 1.115c.129.13.191.298.191.51a.717.717 0 0 1-.2.524.674.674 0 0 1-.511.206.58.58 0 0 1-.475-.215.853.853 0 0 1-.185-.568c0-.043.001-.087.005-.129a.107.107 0 0 0-.107-.115h-.05a.107.107 0 0 0-.103.076c-.06.197-.09.386-.09.563 0 .175.006.292.02.358a.105.105 0 0 0 .024.05c.115.132.278.23.484.292.196.06.386.09.562.09.352 0 .639-.121.852-.359.21-.234.317-.535.317-.895 0-.361-.106-.652-.314-.863l-1.12-1.14zM20.452 52.461h-1.244a.107.107 0 0 0-.107.107v.063c0 .059.048.106.107.106h.074c.069 0 .124.025.175.08.052.055.079.123.082.202v3.472a.317.317 0 0 1-.083.21.222.222 0 0 1-.174.081h-.074a.107.107 0 0 0-.107.107v.063c0 .059.048.107.107.107h1.244a.107.107 0 0 0 .107-.107v-.063a.107.107 0 0 0-.107-.107h-.074a.23.23 0 0 1-.177-.081.289.289 0 0 1-.08-.206v-3.472a.305.305 0 0 1 .083-.207.226.226 0 0 1 .174-.079h.074a.107.107 0 0 0 .107-.106v-.063a.107.107 0 0 0-.107-.107M15.65 52.863h1.013c.45 0 .806.167 1.084.511.28.346.422.813.422 1.386 0 .38-.064.718-.192 1.006a1.532 1.532 0 0 1-.531.66 1.36 1.36 0 0 1-.783.231H15.65v-3.794zm2.565.236c-.396-.423-.918-.638-1.552-.638h-1.926a.107.107 0 0 0-.107.117l.006.062a.107.107 0 0 0 .106.097h.068c.068 0 .126.025.18.075a.226.226 0 0 1 .077.176v3.503a.317.317 0 0 1-.083.21.222.222 0 0 1-.174.081h-.073a.107.107 0 0 0-.107.107v.063c0 .059.048.107.107.107h1.926c.634 0 1.156-.215 1.552-.639.394-.421.594-.98.594-1.66 0-.68-.2-1.239-.594-1.66z"/>
        <path fill="#00377A" d="M1.373 57.976h11.811v-6.76H1.373zM95.228 41.73h1.108l2.3 4.077.729 1.455h.042a6.164 6.164 0 0 0-.042-.475 55.667 55.667 0 0 1-.053-.706 15.55 15.55 0 0 1-.042-1.106v-3.246h1.023v6.903h-1.108l-2.3-4.09-.728-1.443h-.042l.042.527.052.685c.029.373.043.72.043 1.043v3.278h-1.024v-6.903zM89.625 47.493c.288-.217.51-.528.665-.932.154-.404.232-.873.232-1.407 0-.808-.173-1.445-.517-1.912a1.633 1.633 0 0 0-1.382-.701c-.577 0-1.038.233-1.383.7-.345.468-.517 1.105-.517 1.913 0 .534.077 1.003.232 1.407.155.404.377.715.665.932.289.218.623.327 1.003.327.38 0 .713-.109 1.002-.327m-2.57.828c-.453-.292-.807-.71-1.06-1.254-.253-.545-.38-1.182-.38-1.913 0-.73.127-1.363.38-1.897.253-.533.607-.943 1.06-1.227.454-.285.977-.427 1.568-.427.59 0 1.113.142 1.567.427.453.284.807.694 1.06 1.227.253.534.38 1.167.38 1.897s-.127 1.368-.38 1.913c-.253.544-.607.962-1.06 1.254-.454.291-.976.437-1.567.437s-1.114-.146-1.567-.437M80.94 48.632h1.077v-6.903h-1.076zM73.84 48.336c-.465-.28-.83-.69-1.098-1.227-.268-.538-.401-1.175-.401-1.913 0-.73.137-1.366.411-1.907.275-.54.65-.957 1.124-1.249a2.976 2.976 0 0 1 1.588-.437 2.5 2.5 0 0 1 1.103.242c.334.162.617.37.85.622l-.58.696c-.402-.415-.852-.622-1.352-.622-.4 0-.754.107-1.06.321-.306.215-.545.518-.718.912-.172.393-.258.857-.258 1.39 0 .823.18 1.47.543 1.945.362.474.85.711 1.462.711.576 0 1.087-.246 1.53-.737l.58.674c-.57.667-1.287 1.001-2.153 1.001-.583 0-1.107-.14-1.572-.422M67.772 45.807l-.275-.927c-.098-.33-.209-.713-.332-1.148l-.269-.949a.965.965 0 0 0-.053-.2h-.042c-.225.864-.44 1.63-.644 2.297l-.274.927h1.889zm.253.854H65.62l-.59 1.97H63.93l2.29-6.902h1.245l2.29 6.903h-1.14l-.59-1.971zM57.663 44.975h1.055c.507 0 .892-.104 1.156-.31.263-.208.395-.519.395-.933 0-.408-.128-.7-.385-.875-.257-.176-.645-.264-1.166-.264h-1.055v2.382zm2.701 3.657l-1.55-2.793h-1.151v2.793h-1.076v-6.903h2.258c.774 0 1.382.157 1.825.47.444.312.665.823.665 1.533 0 .512-.128.932-.385 1.259-.257.326-.61.56-1.06.7l1.688 2.94h-1.214zM48.8 41.73h4.083v.906h-3.007v1.939h2.543v.906h-2.543v2.244h3.112v.907H48.8zM41.228 48.336c-.482-.28-.86-.69-1.134-1.227-.274-.538-.412-1.175-.412-1.913 0-.73.141-1.368.423-1.912.28-.545.666-.96 1.155-1.249a3.193 3.193 0 0 1 1.651-.432c.802 0 1.485.288 2.047.864l-.58.696a2.344 2.344 0 0 0-.633-.459 1.826 1.826 0 0 0-.802-.163c-.43 0-.806.105-1.129.316-.324.21-.575.515-.754.911-.18.397-.27.863-.27 1.397 0 .829.19 1.479.57 1.95.38.47.922.705 1.625.705.218 0 .426-.03.623-.09s.355-.145.475-.258V45.85H42.71v-.886h2.342v2.983c-.239.246-.548.442-.928.59a3.41 3.41 0 0 1-1.245.221c-.62 0-1.17-.14-1.652-.422M35.008 48.632h1.076v-6.903h-1.076zM27.78 44.975h1.055c.507 0 .892-.104 1.156-.31.263-.208.395-.519.395-.933 0-.408-.128-.7-.385-.875-.257-.176-.645-.264-1.166-.264H27.78v2.382zm2.701 3.657l-1.55-2.793H27.78v2.793h-1.076v-6.903h2.258c.773 0 1.382.157 1.825.47.443.312.665.823.665 1.533 0 .512-.128.932-.385 1.259-.257.326-.61.56-1.06.7l1.688 2.94H30.48zM19.233 41.73h4.094v.906H20.31v2.118h2.564v.906H20.31v2.972h-1.076zM11.445 41.73h4.084v.906h-3.007v1.939h2.543v.906h-2.543v2.244h3.113v.907h-4.19zM4.217 44.975h1.056c.506 0 .891-.104 1.155-.31.264-.208.396-.519.396-.933 0-.408-.129-.7-.385-.875-.257-.176-.646-.264-1.166-.264H4.217v2.382zm2.702 3.657l-1.551-2.793h-1.15v2.793H3.14v-6.903H5.4c.774 0 1.383.157 1.826.47.443.312.665.823.665 1.533 0 .512-.129.932-.386 1.259-.256.326-.61.56-1.06.7l1.688 2.94H6.92z"/>
        <path fill="#727276" d="M102.067 39.52H1.566c-.107 0-.193-.112-.193-.25s.086-.25.193-.25h100.501c.106 0 .193.112.193.25s-.087.25-.193.25"/>
        <path fill="#00377A" d="M22.94 36.892H1.717A1.716 1.716 0 0 1 0 35.177V1.715C0 .768.769 0 1.717 0H22.94c.949 0 1.718.768 1.718 1.715v33.462c0 .947-.77 1.715-1.718 1.715"/>
        <path fill="#FEFEFE" d="M19.26 15.158c-2.903 0-4.855.654-8.336 1.907-2.413.869-5.756 1.797-7.904 1.797-1.546 0-2.83-.44-2.843-.445L0 18.355v2.55c.435.133 1.62.449 3.02.449 1.941 0 5.031-.695 8.266-1.86 3.46-1.246 5.244-1.845 7.975-1.845 2.672 0 5.187.908 5.212.918l.185.067v-2.558c-.653-.219-2.926-.918-5.397-.918M19.26 20.58c-2.903 0-4.855.653-8.336 1.907-2.413.868-5.756 1.797-7.904 1.797-1.546 0-2.83-.441-2.843-.445L0 23.777v2.55c.435.133 1.62.448 3.02.448 1.941 0 5.031-.695 8.266-1.86 3.46-1.245 5.244-1.844 7.975-1.844 2.672 0 5.187.908 5.212.917l.185.068v-2.558c-.653-.22-2.926-.919-5.397-.919"/>
        <path fill="#727276" d="M0 20.345s1.356.475 3.02.475c1.665 0 4.59-.57 8.085-1.828 3.495-1.259 5.35-1.876 8.156-1.876 2.806 0 5.396.95 5.396.95V16.64s-2.59-.95-5.396-.95-4.66.618-8.156 1.876c-3.495 1.259-6.42 1.829-8.085 1.829-1.664 0-3.02-.475-3.02-.475v1.424zM0 25.767s1.356.475 3.02.475c1.665 0 4.59-.57 8.085-1.829 3.495-1.258 5.35-1.876 8.156-1.876 2.806 0 5.396.95 5.396.95v-1.424s-2.59-.95-5.396-.95-4.66.617-8.156 1.876c-3.495 1.258-6.42 1.828-8.085 1.828-1.664 0-3.02-.475-3.02-.475v1.425z"/>
        <path fill="#00377A" d="M98.949 36.443a2.723 2.723 0 0 1-2.726-2.722A2.723 2.723 0 0 1 98.95 31a2.723 2.723 0 0 1 2.725 2.721 2.723 2.723 0 0 1-2.725 2.722m0-5.892a3.173 3.173 0 0 0-3.175 3.17c0 1.751 1.421 3.17 3.175 3.17a3.173 3.173 0 0 0 3.174-3.17c0-1.75-1.421-3.17-3.174-3.17"/>
        <path fill="#00377A" d="M100.53 33.539c.092-.073.137-.19.137-.353 0-.153-.046-.263-.138-.331-.092-.068-.24-.103-.443-.103h-.305v.896h.345c.179 0 .314-.037.405-.11zm-.749.37v1.046h-.34v-2.468h.649c.308 0 .542.059.7.176.16.117.24.291.24.523a.638.638 0 0 1-.133.419.812.812 0 0 1-.402.243l.667 1.107h-.405l-.592-1.046h-.384zM98.75 34.955l-.086-1.114a17.591 17.591 0 0 1-.06-1.006l-.535 1.84h-.32l-.562-1.844c0 .299-.016.644-.047 1.035l-.082 1.089h-.323l.204-2.468h.46l.52 1.795.494-1.795h.463l.204 2.468h-.33zM84.329 5.693s1.781-.38 3.8-.38c2.02 0 7.673.784 7.673 6.334 0 5.551-4.394 8.35-9.668 8.611 0 0 1.335.736 3.777.736 6.438 0 12.115-4.01 12.115-10.034 0-6.026-4.704-9.465-12.257-9.465H76.42s2.399.616 2.399 5.076v24.027c0 6.144-2.4 6.29-2.4 6.29h10.69c-1.496-1.229-2.803-1.427-2.803-6.29 0-11.74.022-24.905.022-24.905"/>
        <path fill="#727276" d="M60.575 24.13c1.272-.605 2.224-1.292 2.855-2.06.631-.769.947-1.624.947-2.567 0-.738-.228-1.348-.685-1.83a2.25 2.25 0 0 0-1.701-.722c-.893 0-1.568.31-2.024.93-.457.62-.685 1.227-.685 1.822 0 .502.087 1.063.262 1.683.174.62.518 1.535 1.03 2.744zm2.386 9.607c-1.355-1.844-2.294-3.192-2.817-4.043-.523-.85-1.098-1.906-1.724-3.166-1.232.707-2.158 1.486-2.779 2.336-.62.85-.931 1.773-.931 2.767a4.32 4.32 0 0 0 1.062 2.89c.708.83 1.663 1.245 2.863 1.245.647 0 1.27-.128 1.87-.384.601-.256 1.42-.805 2.456-1.645zm3.494-10.007h6.465v.569c-.893.072-1.552.269-1.978.591-.426.323-1.09 1.3-1.993 2.93a32.764 32.764 0 0 1-3.048 4.564c.913 1.066 1.729 1.812 2.447 2.237.719.425 1.442.638 2.17.638.709 0 1.31-.192 1.802-.576.493-.385.841-.95 1.047-1.699l.57.415c-.38 1.445-.991 2.51-1.833 3.197-.841.687-1.821 1.03-2.94 1.03-.841 0-1.696-.228-2.563-.684-.867-.456-1.814-1.227-2.84-2.313-1.272 1.127-2.42 1.909-3.44 2.344a8.25 8.25 0 0 1-3.271.653c-1.694 0-3.038-.45-4.033-1.352-.996-.902-1.493-1.978-1.493-3.229 0-1.24.446-2.477 1.339-3.712.893-1.235 2.57-2.513 5.033-3.835-.482-1.066-.81-1.94-.985-2.621a7.892 7.892 0 0 1-.262-1.96c0-1.752.647-3.09 1.94-4.012 1.006-.717 2.15-1.076 3.433-1.076 1.22 0 2.217.361 2.986 1.084.77.722 1.155 1.611 1.155 2.666 0 1.087-.373 2.04-1.117 2.86-.744.82-2.06 1.716-3.948 2.69a62.36 62.36 0 0 0 4.08 6.364c1.805-2.152 2.708-3.966 2.708-5.442 0-.471-.154-.892-.461-1.26-.226-.277-.55-.44-.97-.492v-.569z"/>
        <path fill="#00377A" d="M29.005 7.425l1.734-6.5s1.116.522 1.947.522c.832 0 21.166-.024 22.33-.024 1.164 0 1.971-.498 1.971-.498l-1.567 6.5s-.452-2.088-4.799-2.088h-4.893s.023 20.378.023 25.264c0 4.863 1.307 5.061 2.803 6.29H37.865s2.4-.146 2.4-6.29V5.337h-4.728c-4.49 0-6.532 2.088-6.532 2.088"/>
    </g>
</svg>
