<svg xmlns="http://www.w3.org/2000/svg" width="67" height="38" viewBox="0 0 67 38">
    <g fill="none" fill-rule="evenodd">
        <path fill="#00377B" d="M59.106 37.984h7.739v-4.429h-7.739zM56.695 36.123l.368-1.034.35 1.034h-.718zm1.762 1.08h-.03a.24.24 0 0 1-.145-.053.369.369 0 0 1-.117-.161l-.998-2.63a.07.07 0 0 0-.065-.045h-.034a.07.07 0 0 0-.07.07c0 .028-.017.117-.133.398l-.84 2.204a.396.396 0 0 1-.123.164.235.235 0 0 1-.14.052h-.034a.07.07 0 0 0-.07.07v.041c0 .039.031.07.07.07h.748a.07.07 0 0 0 .07-.07v-.04a.07.07 0 0 0-.07-.07h-.033c-.037 0-.051-.014-.06-.027a.119.119 0 0 1-.027-.062c0-.024.004-.05.011-.073l.233-.655h.906l.22.648a.27.27 0 0 1 .013.078.12.12 0 0 1-.026.065c-.01.012-.024.025-.06.025h-.034a.07.07 0 0 0-.07.07v.041c0 .039.031.07.07.07h.838a.07.07 0 0 0 .07-.07v-.04a.07.07 0 0 0-.07-.07zM55.281 37.202h-.048a.148.148 0 0 1-.114-.051.198.198 0 0 1-.054-.133V34.63h.634c.038.002.07.019.1.052a.18.18 0 0 1 .045.124v.07a.07.07 0 0 0 .062.07l.038.004a.07.07 0 0 0 .077-.07v-.517a.07.07 0 0 0-.1-.063 1.194 1.194 0 0 1-.42.067h-1.258a1.386 1.386 0 0 1-.419-.068.07.07 0 0 0-.098.064v.517a.07.07 0 0 0 .078.07l.037-.004a.07.07 0 0 0 .062-.07v-.07c0-.049.015-.09.045-.124a.133.133 0 0 1 .098-.052h.637v2.39a.195.195 0 0 1-.054.13.148.148 0 0 1-.114.052h-.049a.07.07 0 0 0-.07.07v.041c0 .039.031.07.07.07h.815a.07.07 0 0 0 .07-.07v-.04a.07.07 0 0 0-.07-.07M52.64 35.307a.427.427 0 0 1-.129-.312c0-.122.036-.221.11-.301a.345.345 0 0 1 .267-.117c.109 0 .195.031.262.095s.1.148.1.257c0 .04.031.07.07.07h.033a.07.07 0 0 0 .07-.07v-.504a.07.07 0 0 0-.07-.07h-.137a1.512 1.512 0 0 0-.328-.041c-.222 0-.4.078-.532.232a.813.813 0 0 0-.193.543c0 .213.074.396.22.546l.715.73a.453.453 0 0 1 .126.335.47.47 0 0 1-.132.343.441.441 0 0 1-.334.135.38.38 0 0 1-.311-.141.559.559 0 0 1-.122-.372c0-.028.001-.057.004-.084a.07.07 0 0 0-.07-.076h-.034a.07.07 0 0 0-.067.05 1.437 1.437 0 0 0-.046.604.07.07 0 0 0 .016.032c.075.086.182.15.317.191.129.039.253.059.368.059.231 0 .419-.08.559-.235a.848.848 0 0 0 .208-.586c0-.237-.07-.427-.207-.566l-.733-.747zM49.116 35.816a.067.067 0 0 0-.007.007v-1.185h.168c.087 0 .161.002.22.004.117.007.209.057.278.152.073.1.112.236.117.402v.092a.52.52 0 0 1-.02.135c-.07.246-.239.369-.517.376-.087.005-.15.005-.184 0a.07.07 0 0 0-.055.017m2.618-1.445h-.815a.07.07 0 0 0-.07.07v.041c0 .039.031.07.07.07h.048c.045 0 .082.017.114.052a.199.199 0 0 1 .054.133v2.274a.208.208 0 0 1-.054.138.146.146 0 0 1-.114.053h-.048a.07.07 0 0 0-.036.01.07.07 0 0 0-.035-.01.436.436 0 0 1-.282-.107 1.067 1.067 0 0 1-.084-.078 3.6 3.6 0 0 1-.135-.157 8.4 8.4 0 0 1-.412-.615 1.529 1.529 0 0 0-.16-.202.657.657 0 0 0 .338-.244.982.982 0 0 0 .198-.613.827.827 0 0 0-.212-.585c-.142-.153-.339-.23-.584-.23H48.51a.07.07 0 0 0-.07.07v.041c0 .039.032.07.07.07h.049c.044 0 .08.017.113.053a.207.207 0 0 1 .055.136v2.274a.2.2 0 0 1-.054.136.148.148 0 0 1-.114.051h-.049a.07.07 0 0 0-.07.07v.041c0 .039.032.07.07.07h.815a.07.07 0 0 0 .07-.076l-.004-.041a.07.07 0 0 0-.07-.064h-.044a.15.15 0 0 1-.117-.053.193.193 0 0 1-.051-.135v-1.058a.07.07 0 0 0 .053.024c.057 0 .12.039.184.114.026.032.052.064.075.097.017.023.075.112.262.409.154.244.246.385.282.43a1.5 1.5 0 0 0 .125.138.795.795 0 0 0 .226.145c.1.047.21.07.327.07h.205a.07.07 0 0 0 .035-.01.07.07 0 0 0 .036.01h.815a.07.07 0 0 0 .07-.07v-.04a.07.07 0 0 0-.07-.07h-.049a.151.151 0 0 1-.116-.054.19.19 0 0 1-.052-.135v-2.275a.2.2 0 0 1 .054-.135.148.148 0 0 1 .114-.052h.049a.07.07 0 0 0 .07-.07v-.04a.07.07 0 0 0-.07-.07M45.86 35.877c0-.392.091-.712.273-.95.18-.236.411-.35.706-.35.192 0 .365.053.512.157.148.105.265.257.346.452.083.199.125.431.125.691 0 .393-.092.713-.274.95a.84.84 0 0 1-.707.35.84.84 0 0 1-.708-.35c-.182-.237-.274-.557-.274-.95m.98-1.563c-.416 0-.759.146-1.018.435-.258.287-.389.667-.389 1.128 0 .462.131.841.389 1.128.26.29.602.436 1.018.436.416 0 .759-.147 1.02-.436.259-.287.39-.666.39-1.128 0-.461-.131-.84-.39-1.128-.261-.289-.604-.435-1.02-.435M45.487 34.482v-.04a.07.07 0 0 0-.07-.07h-.827a.07.07 0 0 0-.07.07v.04c0 .039.032.07.07.07h.045c.02 0 .043.006.066.047.011.02.017.037.017.051a.124.124 0 0 1-.011.05l-.532 1.03-.496-1.022a.125.125 0 0 1 .002-.11c.021-.04.044-.046.064-.046h.049a.07.07 0 0 0 .07-.07v-.04a.07.07 0 0 0-.07-.07h-.916a.07.07 0 0 0-.07.07v.04c0 .039.031.07.07.07h.052c.06 0 .118.019.175.058.059.04.105.089.136.144l.702 1.293v.968a.2.2 0 0 1-.053.136.148.148 0 0 1-.115.051h-.048a.07.07 0 0 0-.07.07v.041c0 .039.031.07.07.07h.811a.07.07 0 0 0 .07-.07v-.04a.07.07 0 0 0-.07-.07h-.044a.15.15 0 0 1-.118-.054.193.193 0 0 1-.05-.135v-.963l.723-1.295c.039-.06.088-.11.145-.148a.294.294 0 0 1 .17-.056h.053a.07.07 0 0 0 .07-.07M41.566 36.123l.369-1.034.35 1.034h-.719zm1.762 1.08h-.03a.24.24 0 0 1-.144-.053.369.369 0 0 1-.117-.161l-.998-2.63a.07.07 0 0 0-.065-.045h-.034a.07.07 0 0 0-.07.07c0 .028-.017.117-.133.398l-.84 2.204a.396.396 0 0 1-.123.164.235.235 0 0 1-.14.052H40.6l-.011.001a.068.068 0 0 0-.011 0h-.06a.194.194 0 0 1-.091-.022c-.066-.033-.101-.089-.111-.175l-.287-2.63a.07.07 0 0 0-.07-.062h-.033a.07.07 0 0 0-.065.043l-.952 2.318-.973-2.318a.07.07 0 0 0-.065-.043h-.037a.07.07 0 0 0-.07.062l-.279 2.629a.226.226 0 0 1-.069.146.189.189 0 0 1-.133.051h-.06a.07.07 0 0 0-.07.07v.041c0 .039.032.07.07.07h.723a.07.07 0 0 0 .07-.07v-.037a.07.07 0 0 0-.07-.07h-.06c-.012 0-.028-.003-.05-.029a.091.091 0 0 1-.021-.072l.137-1.718.841 2.01a.07.07 0 0 0 .065.044h.037a.07.07 0 0 0 .07-.061c.013-.106.054-.24.121-.401l.671-1.645.144 1.774a.09.09 0 0 1-.022.07c-.02.025-.04.028-.053.028h-.056a.07.07 0 0 0-.07.07v.037c0 .039.031.07.07.07h1.578a.07.07 0 0 0 .07-.07v-.04a.07.07 0 0 0-.07-.07h-.033c-.037 0-.051-.014-.06-.027a.119.119 0 0 1-.027-.062c0-.024.004-.05.011-.073l.233-.655h.906l.22.648a.27.27 0 0 1 .013.078.12.12 0 0 1-.027.065c-.009.012-.023.025-.06.025h-.033a.07.07 0 0 0-.07.07v.041c0 .039.031.07.07.07h.837a.07.07 0 0 0 .07-.07v-.04a.07.07 0 0 0-.07-.07zM34.546 35.816a.067.067 0 0 0-.007.007v-1.185h.168c.087 0 .162.002.22.004.118.007.209.057.278.152.073.1.113.236.117.402v.092a.52.52 0 0 1-.02.135c-.07.246-.239.369-.517.376-.086.005-.15.005-.183 0a.07.07 0 0 0-.056.017m1.732 1.386a.434.434 0 0 1-.282-.107 1.072 1.072 0 0 1-.084-.078 3.547 3.547 0 0 1-.135-.157 8.417 8.417 0 0 1-.412-.615 1.538 1.538 0 0 0-.16-.202.657.657 0 0 0 .338-.244.982.982 0 0 0 .198-.613.827.827 0 0 0-.212-.585c-.142-.153-.339-.23-.583-.23H33.94a.07.07 0 0 0-.07.07v.041c0 .039.032.07.07.07h.049c.045 0 .08.017.114.053a.207.207 0 0 1 .054.136v2.274a.2.2 0 0 1-.054.136.148.148 0 0 1-.114.051h-.049a.07.07 0 0 0-.07.07v.041c0 .039.032.07.07.07h.816a.07.07 0 0 0 .07-.076l-.004-.041a.07.07 0 0 0-.07-.064h-.045a.15.15 0 0 1-.117-.053.193.193 0 0 1-.05-.135v-1.058a.07.07 0 0 0 .052.024c.057 0 .12.039.184.114.026.031.051.064.076.097.016.023.075.113.261.409.154.244.246.385.282.43.035.045.077.091.125.138a.797.797 0 0 0 .226.145c.1.047.21.07.327.07h.205a.07.07 0 0 0 .07-.07v-.04a.07.07 0 0 0-.07-.07M31.29 35.877c0-.392.092-.712.273-.95.18-.236.411-.35.706-.35.193 0 .365.053.512.157.149.105.265.257.346.452.083.199.125.431.125.691 0 .393-.092.713-.274.95a.84.84 0 0 1-.707.35.84.84 0 0 1-.708-.35c-.181-.237-.274-.557-.274-.95m.98-1.563c-.416 0-.759.146-1.018.435-.258.287-.388.667-.388 1.128 0 .462.13.841.388 1.128.26.29.602.436 1.018.436.416 0 .759-.147 1.02-.436.259-.287.39-.666.39-1.128 0-.461-.131-.84-.39-1.128-.261-.289-.604-.435-1.02-.435M28.49 34.634h.663c.296 0 .528.11.71.335.184.227.277.533.277.908 0 .249-.042.47-.126.66-.082.185-.2.33-.347.431a.891.891 0 0 1-.514.152h-.663v-2.486zm1.68.155c-.26-.277-.601-.418-1.017-.418h-1.262a.07.07 0 0 0-.07.076l.004.041a.07.07 0 0 0 .07.064h.045c.044 0 .082.016.118.049.034.032.05.069.05.115v2.295a.208.208 0 0 1-.054.138.146.146 0 0 1-.114.053h-.049a.07.07 0 0 0-.07.07v.041c0 .039.032.07.07.07h1.262c.416 0 .758-.14 1.017-.418.259-.276.39-.642.39-1.088 0-.445-.131-.811-.39-1.088zM27.448 34.371h-.815a.07.07 0 0 0-.07.07v.041c0 .039.032.07.07.07h.049c.045 0 .081.017.114.052a.199.199 0 0 1 .054.133v2.274a.208.208 0 0 1-.055.138.146.146 0 0 1-.113.053h-.049a.07.07 0 0 0-.07.07v.041c0 .039.032.07.07.07h.815a.07.07 0 0 0 .07-.07v-.04a.07.07 0 0 0-.07-.07H27.4a.15.15 0 0 1-.116-.054.189.189 0 0 1-.052-.135v-2.275a.2.2 0 0 1 .054-.135.148.148 0 0 1 .114-.052h.048a.07.07 0 0 0 .07-.07v-.04a.07.07 0 0 0-.07-.07M26.272 34.371h-.689a.07.07 0 0 0-.07.07v.041c0 .039.032.07.07.07h.06c.036 0 .064.011.088.035a.134.134 0 0 1 .04.092v1.62c0 .264-.071.478-.21.638a.675.675 0 0 1-.54.237.633.633 0 0 1-.527-.249c-.135-.17-.203-.398-.203-.678v-1.565a.135.135 0 0 1 .039-.095.118.118 0 0 1 .088-.035h.06a.07.07 0 0 0 .07-.07v-.04a.07.07 0 0 0-.07-.07h-.756a.07.07 0 0 0-.07.07v.04c0 .039.032.07.07.07h.06c.025 0 .047.005.064.015.044.026.063.063.063.12v1.617c0 .337.102.614.305.822.202.209.469.315.792.315.324 0 .588-.107.785-.318.195-.21.294-.486.294-.823v-1.622a.126.126 0 0 1 .04-.09.12.12 0 0 1 .088-.036h.06a.07.07 0 0 0 .07-.07v-.04a.07.07 0 0 0-.07-.07M22.686 35.504a.64.64 0 0 1-.1.096.324.324 0 0 1-.11.054.99.99 0 0 1-.207.034h-.036a.07.07 0 0 0-.056.029v-1.075h.127c.157 0 .272.043.352.13.08.087.121.213.121.373 0 .162-.03.283-.091.359m-.45.361c.27 0 .471.06.6.178a.53.53 0 0 1 .12.187c.032.08.048.175.048.283 0 .189-.046.335-.138.435-.09.1-.218.148-.387.148h-.302v-1.261c.013.018.036.03.06.03m.673-.134a.698.698 0 0 0 .287-.605.701.701 0 0 0-.236-.55c-.154-.136-.37-.205-.642-.205h-.74a.07.07 0 0 0-.07.076l.003.042a.07.07 0 0 0 .07.063h.044c.046 0 .083.017.117.052.035.036.052.08.052.133v2.278a.2.2 0 0 1-.054.136.148.148 0 0 1-.115.051h-.044a.07.07 0 0 0-.07.064l-.004.041a.07.07 0 0 0 .07.076h.908c.29 0 .52-.076.686-.227a.768.768 0 0 0 .252-.592.93.93 0 0 0-.187-.59.767.767 0 0 0-.327-.243M18.517 35.816a.067.067 0 0 0-.007.007v-1.185h.168c.087 0 .162.002.22.004.118.007.209.057.278.152.073.1.113.236.117.402v.092a.519.519 0 0 1-.02.135c-.07.246-.239.369-.517.376-.086.005-.15.005-.183 0a.07.07 0 0 0-.056.017m2.618-1.445h-.815a.07.07 0 0 0-.07.07v.041c0 .039.031.07.07.07h.048c.045 0 .082.017.115.052a.2.2 0 0 1 .053.133v2.274a.208.208 0 0 1-.054.138.146.146 0 0 1-.114.053h-.048a.07.07 0 0 0-.036.01.07.07 0 0 0-.035-.01.436.436 0 0 1-.282-.107 1.067 1.067 0 0 1-.084-.078 3.583 3.583 0 0 1-.135-.157 8.4 8.4 0 0 1-.412-.615 1.528 1.528 0 0 0-.16-.202.657.657 0 0 0 .338-.244.982.982 0 0 0 .198-.613.827.827 0 0 0-.212-.585c-.142-.153-.339-.23-.583-.23H17.91a.07.07 0 0 0-.07.07v.041c0 .039.032.07.07.07h.049c.045 0 .08.017.114.053a.206.206 0 0 1 .054.136v2.274a.2.2 0 0 1-.054.136.148.148 0 0 1-.114.051h-.049a.07.07 0 0 0-.07.07v.041c0 .039.032.07.07.07h.816a.07.07 0 0 0 .07-.076l-.004-.041a.07.07 0 0 0-.07-.064h-.045a.15.15 0 0 1-.117-.053.193.193 0 0 1-.05-.135v-1.058a.07.07 0 0 0 .052.024c.057 0 .12.039.184.114.026.032.052.064.076.097.016.023.075.113.261.409.154.244.246.385.282.43.035.045.077.091.125.138a.797.797 0 0 0 .226.145c.1.047.21.07.327.07h.205a.07.07 0 0 0 .035-.01.07.07 0 0 0 .036.01h.815a.07.07 0 0 0 .07-.07v-.04a.07.07 0 0 0-.07-.07h-.048a.15.15 0 0 1-.117-.054.189.189 0 0 1-.052-.135v-2.275a.2.2 0 0 1 .054-.135.148.148 0 0 1 .115-.052h.048a.07.07 0 0 0 .07-.07v-.04a.07.07 0 0 0-.07-.07M17.655 34.304a.07.07 0 0 0-.068-.004 1.192 1.192 0 0 1-.42.067h-1.258a1.386 1.386 0 0 1-.419-.068.07.07 0 0 0-.098.064v.517a.07.07 0 0 0 .078.07l.037-.004a.07.07 0 0 0 .062-.07v-.07c0-.048.015-.09.045-.124a.133.133 0 0 1 .097-.052h.638v2.39a.195.195 0 0 1-.054.13.148.148 0 0 1-.115.052h-.048a.07.07 0 0 0-.07.07v.041c0 .039.031.07.07.07h.815a.07.07 0 0 0 .07-.07v-.04a.07.07 0 0 0-.07-.07H16.9a.148.148 0 0 1-.115-.052.198.198 0 0 1-.053-.133V34.63h.633c.039.002.07.018.1.052a.18.18 0 0 1 .046.124v.07a.07.07 0 0 0 .062.07l.038.004a.07.07 0 0 0 .077-.07v-.517a.07.07 0 0 0-.032-.059M14.306 35.307a.427.427 0 0 1-.129-.312c0-.122.036-.221.11-.301a.345.345 0 0 1 .267-.117c.109 0 .195.031.262.095s.1.148.1.257c0 .04.031.07.07.07h.033a.07.07 0 0 0 .07-.07v-.504a.07.07 0 0 0-.07-.07h-.137a1.513 1.513 0 0 0-.328-.041c-.222 0-.4.078-.532.232a.813.813 0 0 0-.193.543c0 .213.074.396.22.546l.715.73a.453.453 0 0 1 .126.335.47.47 0 0 1-.132.343.441.441 0 0 1-.334.135.38.38 0 0 1-.311-.141.559.559 0 0 1-.122-.372c0-.029.001-.057.003-.084a.07.07 0 0 0-.07-.076h-.033a.07.07 0 0 0-.067.05 1.444 1.444 0 0 0-.046.604.07.07 0 0 0 .016.032c.075.086.182.15.317.191.129.039.253.059.368.059.231 0 .419-.08.559-.235a.848.848 0 0 0 .207-.586c0-.237-.069-.427-.206-.566l-.733-.747zM13.4 34.371h-.815a.07.07 0 0 0-.07.07v.041c0 .039.03.07.07.07h.048c.045 0 .082.017.114.052a.198.198 0 0 1 .054.133v2.274a.208.208 0 0 1-.054.138.146.146 0 0 1-.114.053h-.048a.07.07 0 0 0-.07.07v.041c0 .039.03.07.07.07h.815a.07.07 0 0 0 .07-.07v-.04a.07.07 0 0 0-.07-.07h-.049a.15.15 0 0 1-.116-.054.19.19 0 0 1-.052-.135v-2.275a.2.2 0 0 1 .054-.135.148.148 0 0 1 .114-.052h.049a.07.07 0 0 0 .07-.07v-.04a.07.07 0 0 0-.07-.07M10.254 34.634h.663c.296 0 .528.11.71.335.184.227.277.533.277.908 0 .249-.042.47-.126.66-.082.185-.2.33-.348.431a.891.891 0 0 1-.513.152h-.663v-2.486zm1.68.155c-.26-.277-.602-.418-1.017-.418H9.655a.07.07 0 0 0-.07.076l.004.042a.07.07 0 0 0 .07.063h.044c.044 0 .083.016.118.049.035.032.05.069.05.115v2.295a.207.207 0 0 1-.054.138.146.146 0 0 1-.114.053h-.048a.07.07 0 0 0-.07.07v.041c0 .039.031.07.07.07h1.262c.415 0 .758-.14 1.017-.418.258-.276.39-.642.39-1.088 0-.445-.132-.811-.39-1.088zM.9 37.984h7.738v-4.429H.899zM62.39 27.34h.727l1.507 2.672.477.953h.028a4.038 4.038 0 0 0-.028-.311c-.005-.05-.016-.205-.035-.463-.018-.257-.027-.5-.027-.725V27.34h.67v4.522h-.726l-1.507-2.679-.477-.946h-.027l.027.346.035.448c.018.244.027.472.027.684v2.147h-.67V27.34zM58.72 31.116c.189-.142.334-.346.435-.61.102-.265.152-.572.152-.922 0-.53-.113-.947-.338-1.253a1.07 1.07 0 0 0-.906-.46c-.378 0-.68.154-.906.46-.225.306-.338.723-.338 1.253 0 .35.05.657.152.921.101.265.246.469.435.611.19.143.408.214.657.214.249 0 .468-.07.657-.214m-1.684.542a1.898 1.898 0 0 1-.694-.821c-.166-.357-.25-.775-.25-1.253 0-.479.084-.893.25-1.243.165-.35.397-.618.694-.804.298-.187.64-.28 1.027-.28.387 0 .73.093 1.027.28.297.186.529.454.694.804.166.35.25.764.25 1.243 0 .478-.084.896-.25 1.253-.165.357-.397.63-.694.821-.298.191-.64.287-1.027.287-.387 0-.73-.096-1.027-.287M53.03 31.862h.705V27.34h-.705zM48.377 31.669a1.9 1.9 0 0 1-.718-.805c-.176-.352-.263-.77-.263-1.253 0-.478.09-.895.27-1.25a1.99 1.99 0 0 1 .736-.817 1.95 1.95 0 0 1 1.04-.287c.263 0 .504.053.723.159.218.106.404.242.556.407l-.38.456c-.263-.272-.558-.407-.885-.407-.263 0-.494.07-.695.21-.2.14-.357.34-.47.597-.113.258-.17.562-.17.912 0 .538.12.963.357 1.273.237.311.556.466.957.466.378 0 .712-.16 1.003-.483l.38.442a1.776 1.776 0 0 1-1.41.656 1.95 1.95 0 0 1-1.03-.276M44.402 30.012l-.18-.608a54.348 54.348 0 0 1-.217-.752l-.177-.622a.632.632 0 0 0-.034-.13h-.028a38.028 38.028 0 0 1-.421 1.504l-.18.608h1.237zm.166.559h-1.576l-.387 1.291h-.72l1.501-4.522h.816l1.5 4.522h-.747l-.387-1.291zM37.78 29.466h.69c.332 0 .585-.067.758-.203.172-.136.259-.34.259-.611 0-.267-.084-.458-.252-.573-.169-.115-.423-.173-.764-.173h-.692v1.56zm1.769 2.396l-1.016-1.83h-.754v1.83h-.705V27.34h1.48c.506 0 .905.102 1.196.307.29.205.435.54.435 1.005 0 .336-.084.61-.252.825-.169.214-.4.367-.695.459l1.106 1.926h-.795zM31.972 27.34h2.675v.594h-1.97v1.27h1.666v.594h-1.666v1.47h2.04v.594h-2.745zM27.012 31.669a1.908 1.908 0 0 1-.744-.805c-.18-.352-.27-.77-.27-1.253 0-.478.093-.896.277-1.253.185-.356.437-.63.757-.818.32-.189.681-.283 1.082-.283.526 0 .973.189 1.342.566l-.38.456a1.536 1.536 0 0 0-.415-.3 1.197 1.197 0 0 0-.526-.107c-.281 0-.528.069-.74.207a1.357 1.357 0 0 0-.494.597c-.117.26-.176.565-.176.915 0 .543.124.969.373 1.277.249.308.604.462 1.065.462.143 0 .279-.02.408-.058a.774.774 0 0 0 .31-.17V30.04h-.898v-.58h1.535v1.954c-.157.161-.36.29-.609.387-.248.097-.52.145-.815.145-.406 0-.767-.092-1.082-.276M22.936 31.862h.705V27.34h-.705zM18.2 29.466h.692c.332 0 .584-.067.757-.203.173-.136.26-.34.26-.611 0-.267-.085-.458-.253-.573-.168-.115-.423-.173-.764-.173h-.691v1.56zm1.77 2.396l-1.016-1.83h-.753v1.83h-.706V27.34h1.48c.507 0 .906.102 1.196.307.29.205.436.54.436 1.005 0 .336-.085.61-.253.825-.168.214-.4.367-.695.459l1.107 1.926h-.796zM12.6 27.34h2.683v.594h-1.977v1.387h1.68v.594h-1.68v1.947h-.705zM7.499 27.34h2.675v.594h-1.97v1.27H9.87v.594H8.204v1.47h2.04v.594H7.498zM2.763 29.466h.691c.332 0 .585-.067.757-.203.173-.136.26-.34.26-.611 0-.267-.084-.458-.253-.573-.168-.115-.423-.173-.764-.173h-.69v1.56zm1.77 2.396l-1.016-1.83h-.754v1.83h-.705V27.34h1.48c.506 0 .905.102 1.195.307.29.205.436.54.436 1.005 0 .336-.084.61-.252.825-.169.214-.4.367-.695.459l1.106 1.926h-.795zM66.871 26.065H1.026c-.07 0-.127-.112-.127-.25s.057-.25.127-.25H66.87c.07 0 .127.112.127.25s-.057.25-.127.25M15.03 24.17H1.125A1.124 1.124 0 0 1 0 23.047V1.123C0 .503.504 0 1.125 0H15.03c.621 0 1.125.503 1.125 1.123v21.924c0 .62-.504 1.123-1.125 1.123"/>
        <path fill="#FFF" d="M12.62 9.931c-1.903 0-3.182.428-5.463 1.25-1.58.569-3.77 1.177-5.178 1.177-1.013 0-1.855-.289-1.863-.291L0 12.026v1.67c.285.088 1.06.294 1.979.294 1.271 0 3.296-.455 5.415-1.218 2.267-.816 3.436-1.209 5.225-1.209 1.751 0 3.399.595 3.415.601l.12.045v-1.676c-.426-.144-1.916-.602-3.535-.602M12.62 13.483c-1.903 0-3.182.428-5.463 1.25-1.58.569-3.77 1.177-5.178 1.177-1.013 0-1.855-.289-1.863-.292L0 15.578v1.67c.285.088 1.06.294 1.979.294 1.271 0 3.296-.455 5.415-1.218 2.267-.816 3.436-1.209 5.225-1.209 1.751 0 3.399.595 3.415.601l.12.045v-1.676c-.426-.144-1.916-.602-3.535-.602"/>
        <path fill="#00377B" d="M0 13.33s.888.31 1.979.31c1.09 0 3.007-.373 5.297-1.197 2.29-.825 3.505-1.23 5.343-1.23s3.536.623 3.536.623v-.933s-1.698-.622-3.536-.622-3.053.404-5.343 1.229c-2.29.824-4.207 1.198-5.297 1.198A6.655 6.655 0 0 1 0 12.396v.934zM0 16.882s.888.31 1.979.31c1.09 0 3.007-.373 5.297-1.197 2.29-.825 3.505-1.23 5.343-1.23s3.536.623 3.536.623v-.933s-1.698-.622-3.536-.622-3.053.404-5.343 1.229c-2.29.824-4.207 1.198-5.297 1.198-1.09 0-1.979-.312-1.979-.312v.934zM64.828 23.876a1.784 1.784 0 1 1 1.786-1.783c0 .985-.8 1.783-1.786 1.783m0-3.86c-1.148 0-2.08.93-2.08 2.077 0 1.147.932 2.077 2.08 2.077 1.15 0 2.08-.93 2.08-2.077a2.078 2.078 0 0 0-2.08-2.077"/>
        <path fill="#00377B" d="M65.865 21.974c.06-.048.09-.125.09-.232 0-.1-.03-.172-.091-.217-.06-.044-.157-.067-.29-.067h-.2v.587h.226c.117 0 .206-.024.265-.071zm-.49.242v.685h-.224v-1.616h.425c.202 0 .355.038.46.115.104.077.156.19.156.342a.418.418 0 0 1-.087.275.532.532 0 0 1-.263.16l.437.724h-.266l-.388-.685h-.25zM64.698 22.901l-.056-.73a11.525 11.525 0 0 1-.04-.659l-.35 1.206h-.209l-.369-1.208c0 .196-.01.422-.03.678l-.054.713h-.212l.134-1.616h.3l.341 1.175.325-1.175h.303l.134 1.616h-.217zM55.25 3.73s1.167-.249 2.49-.249c1.323 0 5.027.513 5.027 4.15 0 3.637-2.88 5.47-6.334 5.642 0 0 .875.482 2.474.482 4.218 0 7.938-2.627 7.938-6.575 0-3.947-3.082-6.2-8.031-6.2h-8.745s1.572.403 1.572 3.325v15.742c0 4.025-1.572 4.121-1.572 4.121h7.003c-.98-.805-1.836-.935-1.836-4.12 0-7.692.014-16.318.014-16.318M39.687 15.81c.834-.397 1.457-.847 1.87-1.35.414-.504.621-1.065.621-1.682 0-.484-.15-.883-.449-1.199-.299-.315-.67-.473-1.114-.473-.585 0-1.027.203-1.326.61-.3.405-.45.803-.45 1.193 0 .329.058.696.172 1.102.115.407.34 1.006.676 1.798zm1.563 6.294c-.887-1.209-1.502-2.092-1.845-2.65a26.66 26.66 0 0 1-1.13-2.074c-.807.464-1.414.974-1.82 1.531-.407.557-.61 1.162-.61 1.813 0 .718.231 1.35.695 1.893.464.544 1.09.816 1.876.816a3.09 3.09 0 0 0 1.226-.252c.393-.167.929-.527 1.608-1.077zm2.29-6.557h4.235v.373c-.585.047-1.017.176-1.296.388-.279.211-.714.85-1.306 1.918a21.466 21.466 0 0 1-1.997 2.991c.599.699 1.133 1.187 1.604 1.466.47.278.945.418 1.422.418.464 0 .857-.126 1.18-.378.323-.252.551-.623.686-1.113l.373.272c-.249.947-.649 1.645-1.2 2.095a2.957 2.957 0 0 1-1.926.675c-.552 0-1.112-.15-1.68-.448-.568-.3-1.188-.804-1.86-1.516-.834.738-1.586 1.25-2.255 1.536a5.405 5.405 0 0 1-2.143.428c-1.109 0-1.99-.296-2.642-.887-.652-.59-.978-1.295-.978-2.115 0-.812.292-1.623.877-2.432.585-.809 1.684-1.646 3.298-2.513-.316-.698-.531-1.27-.645-1.717a5.17 5.17 0 0 1-.172-1.284c0-1.148.424-2.024 1.27-2.628a3.778 3.778 0 0 1 2.25-.705c.8 0 1.452.236 1.957.71.504.473.756 1.056.756 1.747 0 .712-.244 1.336-.731 1.873-.488.538-1.35 1.125-2.587 1.763a40.856 40.856 0 0 0 2.672 4.17c1.184-1.41 1.775-2.6 1.775-3.566 0-.309-.1-.584-.302-.826-.148-.181-.36-.288-.636-.322v-.373zM19.003 4.865L20.139.606s.732.342 1.276.342l14.63-.015c.762 0 1.292-.327 1.292-.327l-1.028 4.259s-.295-1.368-3.143-1.368H29.96s.015 13.35.015 16.552c0 3.186.856 3.316 1.837 4.121h-7.004s1.572-.096 1.572-4.12V3.496h-3.097c-2.942 0-4.28 1.368-4.28 1.368"/>
    </g>
</svg>
