<svg xmlns="http://www.w3.org/2000/svg" width="25" height="15" viewBox="0 0 25 15">
    <g fill="none" fill-rule="evenodd">
        <path fill="#FF0F19" d="M14.755 7.535c0 4.115-3.278 7.451-7.323 7.451S.108 11.65.108 7.535 3.388.084 7.432.084c4.045 0 7.323 3.336 7.323 7.451"/>
        <path fill="#FFD723" d="M17.336.084c-1.892 0-3.616.73-4.916 1.928a7.526 7.526 0 0 0-.74.79h1.48c.202.25.389.513.558.788h-2.596a7.527 7.527 0 0 0-.422.79h3.44c.118.255.221.518.31.788h-4.06c-.085.257-.156.52-.213.79h4.486a7.64 7.64 0 0 1-.213 3.944h-4.06c.09.27.193.534.31.79h3.44a7.527 7.527 0 0 1-.422.788h-2.596c.17.275.356.539.559.789h1.479a7.38 7.38 0 0 1-.74.789 7.227 7.227 0 0 0 4.916 1.928c4.045 0 7.324-3.336 7.324-7.451S21.38.084 17.336.084"/>
        <path fill="#194B96" d="M22.853 5.854l-.177 1.092c-.217-.291-.45-.502-.758-.502-.402 0-.767.31-1.006.765a6.446 6.446 0 0 1-.677-.19v.003c.026-.255.038-.41.035-.463h-.73c-.1.952-.277 1.915-.415 2.867l-.036.207h.795c.108-.71.19-1.299.25-1.766.272-.25.408-.468.682-.453-.121.299-.192.643-.192.997 0 .768.382 1.275.96 1.275.291 0 .515-.102.733-.339l-.038.286h.753l.605-3.78h-.784zm-.994 3.07c-.27 0-.408-.205-.408-.607 0-.604.256-1.032.617-1.032.273 0 .421.211.421.602 0 .609-.26 1.036-.63 1.036zM18.283 8.333a1.291 1.291 0 0 0-.177-.012c-.45 0-.679.157-.679.467 0 .191.111.314.285.314.324 0 .557-.314.57-.769zm.578 1.37h-.658l.015-.319c-.201.252-.47.372-.833.372-.432 0-.727-.343-.727-.84 0-.749.514-1.185 1.396-1.185.09 0 .205.009.323.024a.773.773 0 0 0 .032-.2c0-.203-.138-.279-.51-.279a2.603 2.603 0 0 0-.842.138c.009-.05.11-.691.11-.691.397-.118.658-.163.952-.163.683 0 1.045.312 1.044.902.001.157-.024.353-.064.609a51.37 51.37 0 0 0-.238 1.631zM16.185 6.672c.221 0 .427.058.71.204l.131-.82c-.117-.047-.527-.32-.874-.32-.532 0-.982.269-1.298.712-.462-.156-.651.158-.884.472l-.206.049c.015-.103.03-.206.025-.31h-.73c-.1.952-.277 1.916-.415 2.867l-.036.207h.795c.133-.878.205-1.44.25-1.82l.3-.169c.044-.17.184-.226.465-.22-.037.2-.057.412-.057.63 0 1.006.534 1.632 1.39 1.632.22 0 .41-.03.703-.11l.139-.862c-.264.132-.48.194-.675.194-.463 0-.742-.347-.742-.92 0-.833.416-1.416 1.01-1.416M12.334 9.631a2.667 2.667 0 0 1-.81.125c-.886 0-1.347-.471-1.347-1.371 0-1.051.587-1.825 1.383-1.825.652 0 1.068.433 1.068 1.113 0 .225-.029.445-.097.756h-1.574c-.054.446.227.632.687.632.282 0 .538-.06.822-.194l-.132.764zM11.89 7.81c.004-.065.084-.549-.368-.549-.252 0-.432.196-.505.549h.873zM9.872 9.699c-.217.07-.387.1-.57.1-.407 0-.629-.238-.629-.675-.006-.137.059-.493.11-.82.045-.287.344-2.097.344-2.097h.79l-.092.465h.405l-.108.739h-.407c-.091.585-.222 1.312-.224 1.409 0 .159.083.228.273.228.09 0 .16-.01.214-.03l-.106.68M6.775 7.6c0 .39.185.657.605.859.322.154.372.2.372.34 0 .19-.142.277-.457.277-.237 0-.457-.037-.712-.12 0 0-.104.677-.11.709.181.04.343.077.828.09.84 0 1.227-.324 1.227-1.026 0-.423-.163-.67-.56-.857-.334-.156-.373-.19-.373-.334 0-.166.133-.252.39-.252.155 0 .369.018.57.047l.114-.713a5.321 5.321 0 0 0-.7-.06c-.89 0-1.197.473-1.194 1.04M5.784 8.333a1.3 1.3 0 0 0-.177-.012c-.451 0-.68.157-.68.467 0 .191.112.314.286.314.324 0 .557-.314.571-.769zm.578 1.37h-.658l.015-.319c-.201.252-.47.372-.834.372-.43 0-.726-.343-.726-.84 0-.749.514-1.185 1.396-1.185.09 0 .206.009.324.024a.771.771 0 0 0 .031-.2c0-.203-.139-.279-.51-.279a2.6 2.6 0 0 0-.841.138l.11-.691c.396-.118.657-.163.951-.163.683 0 1.045.312 1.044.902.001.157-.024.353-.064.609-.07.444-.218 1.4-.238 1.631zM3.76 9.75h-.795l.455-2.905-1.017 2.906h-.542l-.067-2.889-.478 2.889H.57l.622-3.78h1.143l.032 2.34.772-2.34h1.234l-.615 3.78"/>
        <path fill="#FFFFFE" d="M23.348 9.515h-.752l.037-.286c-.218.237-.441.34-.733.34-.577 0-.96-.507-.96-1.276 0-1.022.593-1.884 1.294-1.884.308 0 .542.128.76.419l.176-1.092h.784l-.606 3.779zm-1.173-.71c.37 0 .63-.427.63-1.036 0-.39-.147-.602-.42-.602-.361 0-.617.428-.617 1.032 0 .403.137.606.407.606zM19.77 6.358c-.099.95-.275 1.915-.414 2.866l-.036.207h.795c.285-1.88.353-2.246.8-2.2.07-.385.203-.722.301-.892-.333-.07-.519.12-.762.485.019-.158.054-.31.047-.466h-.73M18.514 8.098a1.291 1.291 0 0 0-.177-.013c-.45 0-.679.157-.679.468 0 .191.112.313.285.313.324 0 .558-.313.571-.768zm.579 1.369h-.659l.015-.318c-.201.251-.469.371-.833.371-.431 0-.726-.342-.726-.84 0-.748.513-1.184 1.395-1.184.09 0 .206.008.324.024a.773.773 0 0 0 .031-.2c0-.203-.138-.28-.51-.28a2.603 2.603 0 0 0-.841.139l.11-.692c.396-.118.658-.162.952-.162.682 0 1.044.312 1.043.901.002.158-.024.353-.064.609a51.37 51.37 0 0 0-.237 1.632zM17.24 5.814l-.13.82c-.284-.145-.49-.203-.71-.203-.594 0-1.01.583-1.01 1.416 0 .573.28.92.741.92.196 0 .412-.062.676-.194l-.14.861c-.293.082-.482.111-.703.111-.856 0-1.389-.626-1.389-1.632 0-1.35.737-2.295 1.79-2.295.348 0 .758.15.875.196M13.29 6.358c-.1.95-.277 1.915-.415 2.866l-.036.207h.796c.284-1.88.352-2.246.798-2.2a3.07 3.07 0 0 1 .302-.892c-.333-.07-.519.12-.762.485.02-.158.054-.31.047-.466h-.73M12.566 9.396a2.667 2.667 0 0 1-.811.124c-.885 0-1.346-.47-1.346-1.37 0-1.052.586-1.825 1.382-1.825.653 0 1.068.433 1.068 1.112 0 .226-.028.446-.097.756h-1.574c-.053.446.228.632.687.632.283 0 .538-.06.822-.194l-.131.765zm-.445-1.823c.005-.064.084-.548-.367-.548-.252 0-.432.195-.505.548h.872zM10.104 9.463c-.218.07-.387.1-.571.1-.407 0-.629-.237-.629-.675-.005-.136.06-.493.11-.82.045-.287.344-2.097.344-2.097h.79l-.092.465h.406l-.108.739h-.407c-.092.585-.223 1.313-.224 1.41 0 .158.083.227.272.227.09 0 .16-.009.214-.029l-.105.68M7.006 7.365c0 .39.186.657.606.858.322.155.371.2.371.34 0 .191-.141.278-.456.278-.237 0-.458-.038-.713-.121l-.109.709c.18.04.342.077.827.091.84 0 1.227-.325 1.227-1.027 0-.422-.162-.67-.56-.856-.334-.156-.372-.19-.372-.334 0-.167.132-.252.389-.252.156 0 .37.018.571.047l.113-.713a5.321 5.321 0 0 0-.7-.06c-.889 0-1.197.472-1.194 1.04M6.015 8.098a1.3 1.3 0 0 0-.177-.013c-.45 0-.679.157-.679.468 0 .191.112.313.285.313.324 0 .558-.313.571-.768zm.579 1.369h-.659l.015-.318c-.2.251-.469.371-.833.371-.431 0-.726-.342-.726-.84 0-.748.513-1.184 1.395-1.184.09 0 .206.008.324.024a.771.771 0 0 0 .031-.2c0-.203-.138-.28-.51-.28a2.6 2.6 0 0 0-.841.139l.11-.692c.396-.118.658-.162.952-.162.683 0 1.044.312 1.043.901.002.158-.024.353-.064.609-.069.445-.217 1.4-.237 1.632zM3.99 9.515h-.794l.455-2.905-1.016 2.905h-.542l-.067-2.888-.479 2.888H.803l.621-3.78h1.144l.032 2.34.771-2.34h1.235l-.615 3.78"/>
    </g>
</svg>
