<svg xmlns="http://www.w3.org/2000/svg" width="56" height="33" viewBox="0 0 56 33">
    <g fill="none" fill-rule="evenodd">
        <path fill="#FF0F19" d="M33.052 16.577c0 9.054-7.344 16.392-16.404 16.392-9.06 0-16.405-7.338-16.405-16.392C.243 7.524 7.588.184 16.648.184c9.06 0 16.404 7.34 16.404 16.393"/>
        <path fill="#FFD723" d="M38.833.184c-4.24 0-8.101 1.607-11.013 4.243a16.682 16.682 0 0 0-1.655 1.736h3.314c.452.55.87 1.13 1.25 1.736h-5.816a16.463 16.463 0 0 0-.944 1.736h7.705c.264.562.495 1.14.695 1.736h-9.095c-.19.565-.35 1.144-.477 1.735h10.048a16.518 16.518 0 0 1-.476 8.679h-9.095c.2.594.431 1.173.694 1.736h7.706a16.465 16.465 0 0 1-.946 1.736h-5.815c.38.605.798 1.184 1.252 1.734h3.313a16.359 16.359 0 0 1-1.657 1.736 16.35 16.35 0 0 0 11.012 4.242c9.06 0 16.405-7.338 16.405-16.392 0-9.053-7.345-16.393-16.405-16.393"/>
        <path fill="#194B96" d="M51.191 12.878l-.396 2.402c-.486-.64-1.01-1.104-1.7-1.104-.899 0-1.716.681-2.252 1.684-.746-.155-1.516-.418-1.516-.418v.007c.058-.56.084-.902.078-1.018h-1.636c-.223 2.093-.62 4.213-.928 6.307l-.082.455h1.782c.24-1.56.424-2.858.56-3.885.609-.55.914-1.03 1.528-.998a5.798 5.798 0 0 0-.432 2.194c0 1.69.856 2.806 2.15 2.806.654 0 1.154-.225 1.643-.747l-.084.63h1.685l1.356-8.315h-1.756zm-2.227 6.753c-.607 0-.913-.45-.913-1.333 0-1.33.574-2.272 1.381-2.272.612 0 .944.466.944 1.325 0 1.34-.584 2.28-1.412 2.28zM40.953 18.333a2.944 2.944 0 0 0-.396-.027c-1.01 0-1.52.345-1.52 1.028 0 .42.249.69.638.69.725 0 1.248-.69 1.278-1.69zm1.296 3.012h-1.475l.033-.7c-.45.553-1.05.818-1.866.818-.966 0-1.626-.754-1.626-1.848 0-1.647 1.15-2.606 3.126-2.606.202 0 .46.018.725.053.055-.224.07-.32.07-.44 0-.448-.31-.614-1.142-.614a5.925 5.925 0 0 0-1.885.303l.247-1.52c.887-.26 1.472-.359 2.131-.359 1.53 0 2.34.687 2.338 1.983.003.348-.054.778-.144 1.34-.155.979-.486 3.08-.532 3.59zM36.255 14.678c.495 0 .957.129 1.592.45l.291-1.805c-.261-.103-1.18-.704-1.957-.704-1.192 0-2.2.592-2.908 1.566-1.034-.342-1.46.35-1.98 1.038l-.463.108c.035-.227.067-.452.057-.68h-1.636c-.223 2.093-.619 4.213-.929 6.307l-.08.455h1.78c.298-1.931.46-3.167.56-4.004l.67-.372c.102-.373.414-.498 1.044-.483-.082.44-.127.905-.127 1.386 0 2.212 1.196 3.59 3.113 3.59.493 0 .918-.065 1.574-.244l.312-1.894c-.59.29-1.074.426-1.512.426-1.036 0-1.662-.764-1.662-2.026 0-1.831.931-3.114 2.261-3.114M27.628 21.19a6.073 6.073 0 0 1-1.816.273c-1.982-.002-3.015-1.036-3.015-3.017 0-2.312 1.314-4.014 3.097-4.014 1.461 0 2.393.953 2.393 2.449 0 .495-.065.979-.218 1.662h-3.525c-.12.981.508 1.39 1.538 1.39.633 0 1.205-.13 1.841-.426l-.295 1.682zm-.994-4.01c.01-.142.187-1.208-.825-1.208-.563 0-.966.43-1.13 1.207h1.955zM22.114 21.337c-.487.154-.867.22-1.279.22-.91 0-1.407-.523-1.407-1.485-.013-.3.131-1.084.244-1.802.103-.633.772-4.615.772-4.615h1.77l-.206 1.023h.908l-.242 1.625h-.911c-.206 1.287-.5 2.888-.503 3.1 0 .35.187.502.61.502.203 0 .36-.02.48-.064l-.236 1.496M15.175 16.721c0 .856.416 1.445 1.357 1.889.72.339.832.439.832.746 0 .422-.318.612-1.022.612a5.02 5.02 0 0 1-1.596-.266l-.245 1.56c.405.089.766.17 1.853.2 1.88 0 2.748-.714 2.748-2.26 0-.929-.364-1.474-1.256-1.883-.746-.343-.832-.42-.832-.735 0-.366.296-.554.871-.554.35 0 .827.039 1.28.103l.254-1.568a12.132 12.132 0 0 0-1.568-.133c-1.992 0-2.682 1.04-2.676 2.29M12.956 18.333a2.963 2.963 0 0 0-.397-.027c-1.01 0-1.52.345-1.52 1.028 0 .42.249.69.638.69.725 0 1.248-.69 1.28-1.69zm1.295 3.012h-1.475l.034-.7c-.45.553-1.051.818-1.867.818-.965 0-1.627-.754-1.627-1.848 0-1.647 1.151-2.606 3.127-2.606.202 0 .46.018.726.053.055-.224.07-.32.07-.44 0-.448-.31-.614-1.142-.614a5.918 5.918 0 0 0-1.886.303l.247-1.52c.887-.26 1.473-.359 2.132-.359 1.529 0 2.339.687 2.337 1.983.003.348-.054.778-.144 1.34-.154.979-.486 3.08-.532 3.59zM8.421 21.451h-1.78l1.02-6.391-2.278 6.391H4.169l-.15-6.354-1.072 6.354H1.28l1.392-8.314h2.561l.072 5.147 1.728-5.147h2.766L8.42 21.451"/>
        <path fill="#FFFFFE" d="M52.3 20.933h-1.685l.084-.63c-.489.522-.99.747-1.642.747-1.294 0-2.15-1.114-2.15-2.806 0-2.249 1.327-4.145 2.897-4.145.69 0 1.214.282 1.7.923l.396-2.403h1.756L52.3 20.933zm-2.627-1.562c.83 0 1.412-.94 1.412-2.279 0-.859-.332-1.326-.944-1.326-.808 0-1.381.943-1.381 2.272 0 .886.307 1.333.913 1.333zM44.287 13.987c-.223 2.093-.619 4.213-.929 6.306l-.08.455h1.78c.637-4.135.79-4.942 1.79-4.84.16-.847.455-1.588.676-1.962-.746-.155-1.162.266-1.708 1.066.043-.346.122-.682.107-1.025h-1.636M41.471 17.815a2.944 2.944 0 0 0-.396-.027c-1.01 0-1.52.345-1.52 1.028 0 .42.25.69.638.69.725 0 1.249-.69 1.278-1.69zm1.297 3.012h-1.476l.034-.7c-.45.553-1.05.818-1.866.818-.966 0-1.627-.754-1.627-1.848 0-1.647 1.15-2.606 3.126-2.606.202 0 .46.018.725.053.055-.224.07-.32.07-.44 0-.448-.31-.614-1.142-.614a5.925 5.925 0 0 0-1.885.303c.02-.112.247-1.52.247-1.52.888-.26 1.473-.359 2.131-.359 1.53 0 2.34.687 2.338 1.983.004.348-.054.777-.144 1.34-.154.979-.486 3.08-.531 3.59zM38.617 12.792l-.292 1.804c-.636-.32-1.097-.449-1.59-.449-1.33 0-2.263 1.284-2.263 3.116 0 1.262.627 2.024 1.662 2.024.439 0 .923-.135 1.513-.426l-.313 1.895c-.656.178-1.08.243-1.574.243-1.917 0-3.112-1.377-3.112-3.59 0-2.972 1.651-5.05 4.011-5.05.778 0 1.696.33 1.958.433M29.77 13.987c-.224 2.093-.62 4.213-.93 6.306l-.08.455h1.781c.638-4.135.79-4.942 1.789-4.84.16-.847.457-1.588.677-1.962-.746-.155-1.163.266-1.708 1.066.043-.346.122-.682.107-1.025H29.77M28.147 20.671a6.073 6.073 0 0 1-1.817.274c-1.982-.002-3.015-1.037-3.015-3.017 0-2.312 1.314-4.014 3.098-4.014 1.46 0 2.392.953 2.392 2.448 0 .496-.065.98-.218 1.663h-3.525c-.12.98.509 1.39 1.538 1.39.634 0 1.206-.13 1.842-.426l-.295 1.682zm-.995-4.01c.01-.141.187-1.207-.824-1.207-.564 0-.967.43-1.131 1.207h1.955zM22.633 20.82c-.487.153-.867.22-1.28.22-.91 0-1.407-.524-1.407-1.486-.012-.3.132-1.084.245-1.802.102-.633.772-4.615.772-4.615h1.77l-.207 1.023h.909l-.242 1.625h-.912c-.206 1.287-.499 2.888-.502 3.1 0 .35.186.501.61.501.203 0 .36-.02.48-.063l-.236 1.496M15.694 16.203c0 .856.415 1.445 1.356 1.889.721.339.833.439.833.746 0 .422-.318.612-1.023.612a5.02 5.02 0 0 1-1.596-.266l-.244 1.56c.404.088.766.17 1.853.2 1.88 0 2.747-.714 2.747-2.26 0-.929-.363-1.474-1.255-1.883-.747-.343-.833-.42-.833-.735 0-.366.296-.554.872-.554.35 0 .827.039 1.28.103l.253-1.568a12.132 12.132 0 0 0-1.568-.133c-1.992 0-2.681 1.04-2.675 2.29M13.475 17.815a2.963 2.963 0 0 0-.398-.027c-1.01 0-1.52.345-1.52 1.028 0 .42.25.69.638.69.726 0 1.249-.69 1.28-1.69zm1.295 3.012h-1.476l.034-.7c-.45.553-1.05.818-1.866.818-.966 0-1.627-.754-1.627-1.848 0-1.647 1.15-2.606 3.126-2.606.203 0 .461.018.726.053.055-.224.07-.32.07-.44 0-.448-.31-.614-1.142-.614a5.918 5.918 0 0 0-1.885.303l.247-1.52c.887-.26 1.472-.359 2.131-.359 1.53 0 2.34.687 2.338 1.983.003.348-.055.777-.144 1.34-.155.979-.487 3.08-.532 3.59zM8.94 20.933H7.159l1.02-6.391-2.278 6.391H4.688l-.15-6.354-1.073 6.354H1.798l1.393-8.314h2.56l.072 5.147 1.728-5.147h2.766L8.94 20.933"/>
    </g>
</svg>
