<svg xmlns="http://www.w3.org/2000/svg" xmlns:xlink="http://www.w3.org/1999/xlink" width="30" height="30" viewBox="0 0 30 30">
    <defs>
        <linearGradient id="a" x1="57.698%" x2="85.399%" y1="-5.021%" y2="114.28%">
            <stop offset="0%" stop-color="#4E60D3"/>
            <stop offset="14.874%" stop-color="#913BAF"/>
            <stop offset="31.584%" stop-color="#D52D88"/>
            <stop offset="49.377%" stop-color="#D72E85"/>
            <stop offset="81.651%" stop-color="#E6366D"/>
            <stop offset="100%" stop-color="#F26D4F"/>
        </linearGradient>
        <path id="b" d="M22.852 0C27.187 0 30 2.813 30 7.148v15.704C30 27.187 27.187 30 22.852 30H7.148C2.813 30 0 27.187 0 22.852V7.148C0 2.813 2.813 0 7.148 0h15.704z"/>
        <radialGradient id="c" cx="52.722%" cy="67.407%" r="64.505%" fx="52.722%" fy="67.407%" gradientTransform="matrix(.96336 .2682 -.25256 .9072 .19 -.079)">
            <stop offset="0%" stop-color="#FED980"/>
            <stop offset="37.228%" stop-color="#FCAE49"/>
            <stop offset="55.555%" stop-color="#F06745"/>
            <stop offset="100%" stop-color="#E83D5C" stop-opacity="0"/>
        </radialGradient>
    </defs>
    <g fill="none" fill-rule="evenodd">
        <path fill="url(#a)" d="M22.852 0C27.187 0 30 2.813 30 7.148v15.704C30 27.187 27.187 30 22.852 30H7.148C2.813 30 0 27.187 0 22.852V7.148C0 2.813 2.813 0 7.148 0h15.704z"/>
        <mask id="d" fill="#fff">
            <use xlink:href="#b"/>
        </mask>
        <path fill="url(#c)" d="M9.053 43.887c11.682 0 21.152-9.47 21.152-21.153 0-11.682-9.47-21.152-21.152-21.152S-12.1 11.052-12.1 22.734s9.47 21.153 21.153 21.153z" mask="url(#d)"/>
        <rect width="20.098" height="19.98" x="4.98" y="5.098" stroke="#FFF" stroke-width="1.75" rx="5"/>
        <circle cx="15.059" cy="15.176" r="4.805" stroke="#FFF" stroke-width="1.75"/>
        <circle cx="20.947" cy="9.199" r="1.406" fill="#FFF"/>
    </g>
</svg>
