<svg xmlns="http://www.w3.org/2000/svg" width="82" height="23" viewBox="0 0 82 23">
    <g fill="none" fill-rule="evenodd">
        <path fill="#55A5EB" d="M77.59 1.322l-2.582 16.366a.523.523 0 0 0 .517.604h2.597c.43 0 .796-.312.863-.735L81.53 1.484a.523.523 0 0 0-.518-.603h-2.905a.523.523 0 0 0-.518.44M69.842 12.52c-.29 1.715-1.656 2.867-3.399 2.867-.873 0-1.573-.28-2.022-.81-.446-.526-.613-1.275-.472-2.108.27-1.7 1.659-2.889 3.375-2.889.855 0 1.55.283 2.008.818.461.54.643 1.292.51 2.122m4.198-5.842h-3.012a.524.524 0 0 0-.518.442l-.132.838-.211-.303c-.652-.944-2.106-1.26-3.558-1.26-3.327 0-6.17 2.514-6.722 6.038-.288 1.759.12 3.439 1.121 4.611.919 1.078 2.23 1.526 3.793 1.526 2.682 0 4.17-1.716 4.17-1.716l-.135.834a.523.523 0 0 0 .518.603h2.712c.43 0 .796-.31.864-.734l1.628-10.275a.523.523 0 0 0-.518-.604M55.967 6.75C55.623 9 53.899 9 52.23 9h-.949l.666-4.2c.04-.254.26-.441.517-.441h.436c1.135 0 2.207 0 2.76.644.33.385.43.958.306 1.747M55.24.88h-6.29a.873.873 0 0 0-.863.735l-2.543 16.073a.523.523 0 0 0 .517.603h3.228c.3 0 .557-.218.604-.514l.721-4.557a.872.872 0 0 1 .863-.735h1.99c4.143 0 6.535-1.998 7.16-5.959.28-1.73.01-3.092-.803-4.044C58.931 1.434 57.345.88 55.241.88"/>
        <path fill="#194B96" d="M45.22 6.678h-3.027c-.29 0-.56.143-.722.383l-4.177 6.129-1.769-5.89a.875.875 0 0 0-.838-.622h-2.975a.523.523 0 0 0-.496.691l3.333 9.751-3.135 4.409a.522.522 0 0 0 .428.824h3.024c.286 0 .554-.14.718-.374l10.067-14.48a.522.522 0 0 0-.43-.82M24.982 12.52c-.291 1.715-1.657 2.867-3.4 2.867-.873 0-1.572-.28-2.022-.81-.445-.526-.613-1.275-.472-2.108.271-1.7 1.66-2.889 3.375-2.889.856 0 1.55.283 2.008.818.462.54.643 1.292.511 2.122m4.197-5.842h-3.011a.524.524 0 0 0-.518.442l-.133.838-.21-.303c-.652-.944-2.106-1.26-3.558-1.26-3.327 0-6.17 2.514-6.723 6.038-.287 1.759.121 3.439 1.122 4.611.919 1.078 2.23 1.526 3.793 1.526 2.682 0 4.17-1.716 4.17-1.716l-.135.834a.523.523 0 0 0 .518.603h2.712c.43 0 .796-.31.863-.734l1.629-10.275a.523.523 0 0 0-.519-.604M11.106 6.75C10.763 9 9.04 9 7.37 9h-.948l.665-4.2c.04-.254.26-.441.518-.441h.435c1.136 0 2.208 0 2.76.644.332.385.431.958.306 1.747M10.381.88H4.09a.873.873 0 0 0-.864.735L.684 17.688a.523.523 0 0 0 .518.603h3.003c.43 0 .796-.312.863-.734l.687-4.337a.872.872 0 0 1 .863-.735h1.99c4.143 0 6.534-1.998 7.159-5.959.281-1.73.011-3.092-.802-4.044C14.07 1.434 12.485.88 10.38.88"/>
    </g>
</svg>
