<svg xmlns="http://www.w3.org/2000/svg" width="43" height="12" viewBox="0 0 43 12">
    <g fill="none" fill-rule="evenodd">
        <path fill="#0096FF" d="M40.687.69l-1.354 8.539a.273.273 0 0 0 .272.315h1.361a.457.457 0 0 0 .453-.384L42.754.774a.273.273 0 0 0-.272-.315h-1.523a.274.274 0 0 0-.272.23M36.625 6.532c-.153.895-.87 1.496-1.783 1.496-.458 0-.825-.146-1.06-.423-.234-.274-.322-.665-.248-1.1a1.762 1.762 0 0 1 1.77-1.507c.449 0 .813.148 1.053.427.242.281.337.674.268 1.107m2.2-3.048h-1.579a.274.274 0 0 0-.271.23l-.07.438-.11-.158c-.342-.492-1.105-.657-1.866-.657-1.745 0-3.235 1.311-3.525 3.15-.15.917.063 1.794.588 2.406.482.562 1.17.796 1.989.796 1.407 0 2.187-.896 2.187-.896l-.071.435a.273.273 0 0 0 .272.315h1.422a.457.457 0 0 0 .453-.383l.853-5.36a.273.273 0 0 0-.271-.316M29.348 3.522c-.18 1.174-1.084 1.174-1.959 1.174h-.497l.349-2.192a.274.274 0 0 1 .271-.23h.229c.595 0 1.157 0 1.447.336.174.201.226.5.16.912m-.38-3.063H25.67a.457.457 0 0 0-.453.384l-1.334 8.385a.273.273 0 0 0 .272.315h1.692a.32.32 0 0 0 .317-.268l.378-2.377a.457.457 0 0 1 .453-.384h1.043c2.173 0 3.427-1.042 3.754-3.109.148-.903.006-1.613-.42-2.11-.47-.547-1.3-.836-2.404-.836"/>
        <path fill="#031496" d="M23.713 3.484h-1.587a.458.458 0 0 0-.38.2l-2.19 3.197-.927-3.072a.459.459 0 0 0-.44-.325h-1.56a.273.273 0 0 0-.26.36l1.748 5.088-1.644 2.3c-.129.18.001.43.224.43h1.586a.46.46 0 0 0 .377-.195l5.279-7.555a.272.272 0 0 0-.226-.428M13.1 6.532c-.152.895-.868 1.496-1.782 1.496-.458 0-.825-.146-1.06-.423-.234-.274-.322-.665-.248-1.1a1.762 1.762 0 0 1 1.77-1.507c.448 0 .812.148 1.052.427.242.281.338.674.268 1.107m2.201-3.048h-1.579a.274.274 0 0 0-.272.23l-.069.438-.11-.158c-.342-.492-1.105-.657-1.866-.657-1.745 0-3.235 1.311-3.525 3.15-.151.917.063 1.794.588 2.406.482.562 1.17.796 1.989.796 1.406 0 2.186-.896 2.186-.896l-.07.435a.273.273 0 0 0 .271.315h1.422a.457.457 0 0 0 .453-.383l.854-5.36a.273.273 0 0 0-.272-.316M5.824 3.522c-.18 1.174-1.084 1.174-1.959 1.174h-.498l.35-2.192a.274.274 0 0 1 .27-.23h.23c.595 0 1.157 0 1.447.336.173.201.226.5.16.912M5.444.459H2.145a.457.457 0 0 0-.453.384L.36 9.228a.273.273 0 0 0 .271.315h1.575a.457.457 0 0 0 .453-.383l.36-2.262a.457.457 0 0 1 .452-.384h1.044c2.172 0 3.427-1.042 3.754-3.109.148-.903.006-1.613-.42-2.11C7.377.748 6.546.459 5.443.459"/>
    </g>
</svg>
