<svg xmlns="http://www.w3.org/2000/svg" width="30" height="30" viewBox="0 0 30 30">
    <g fill="none" fill-rule="evenodd">
        <path fill="#377DC8" d="M22.852 0C27.187 0 30 2.813 30 7.148v15.704C30 27.187 27.187 30 22.852 30H7.148C2.813 30 0 27.187 0 22.852V7.148C0 2.813 2.813 0 7.148 0h15.704z"/>
        <path fill="#FFF" d="M6.67 7.705s3.403 4.232 8.59 4.486c0 0-1.059-2.806 2.105-4.73 0 0 2.571-1.51 5.052.935 0 0 1.119-.054 2.468-1.046 0 0 .198.913-1.56 2.38 0 0 .978-.079 2.089-.806 0 0-.212 1.256-2.024 2.168 0 0 .552 9.94-9.148 12.115 0 0-5.13 1.158-8.742-1.676 0 0 3.832.399 5.868-1.737 0 0-2.555.24-3.812-2.774 0 0 1.277.22 1.796-.2 0 0-2.695.02-3.293-4.011 0 0 1.098.559 1.816.459 0 0-3.05-1.884-1.206-5.563"/>
    </g>
</svg>
