<svg xmlns="http://www.w3.org/2000/svg" width="69" height="23" viewBox="0 0 69 23">
    <g fill="none" fill-rule="evenodd">
        <path fill="#00377B" d="M63.22 22.128l-.652-3.148h-7.063l-1.158 3.148h-5.79L56.84 2.506s.503-1.58 2.566-1.58h4.466l4.448 21.202h-5.102zm-6.114-7.499h4.562l-1.643-7.936-2.919 7.936zM48.99 6.025l.793-4.553S47.336.547 44.786.547c-2.758 0-9.305 1.198-9.305 7.02 0 5.478 7.685 5.546 7.685 8.42 0 2.877-6.893 2.364-9.169.55l-.825 4.759s2.48 1.198 6.272 1.198c3.79 0 9.512-1.951 9.512-7.258 0-5.513-7.755-6.027-7.755-8.424 0-2.397 5.412-2.089 7.789-.787M29.748 22.128h-5.556L27.664.927h5.558l-3.474 21.201M4.711.927H9.09c2.41 0 2.635 1.909 2.635 1.909l1.87 9.534s-1.257-3.868-5.117-6.972C4.44 2.152.231 1.285.23 1.285L.333.927h8.756c2.41 0 2.635 1.909 2.635 1.909l1.87 9.534v-.001l.628 3.14L19.518.927h5.98l-8.84 21.201H10.87L6.044 3.708C2.909 1.839.23 1.286.23 1.286L.333.927H4.71z"/>
        <path fill="#FFC819" d="M13.594 12.37l-1.87-9.534S11.5.926 9.09.926H.333l-.103.36c.001 0 4.21.866 8.247 4.112 3.86 3.104 5.117 6.972 5.117 6.972"/>
    </g>
</svg>
