<svg xmlns="http://www.w3.org/2000/svg" width="36" height="12" viewBox="0 0 36 12">
    <g fill="none" fill-rule="evenodd">
        <path fill="#031496" d="M32.984 11.545l-.34-1.643H28.96l-.604 1.643h-3.021l4.322-10.238s.263-.824 1.34-.824h2.33l2.32 11.062h-2.662zm-3.19-3.912h2.38l-.857-4.14-1.523 4.14zM25.56 3.143l.414-2.375S24.697.286 23.367.286c-1.44 0-4.855.624-4.855 3.662 0 2.858 4.01 2.894 4.01 4.393 0 1.501-3.597 1.233-4.784.287l-.43 2.483s1.293.625 3.272.625c1.977 0 4.962-1.018 4.962-3.787 0-2.876-4.046-3.145-4.046-4.395 0-1.25 2.824-1.09 4.064-.41M15.52 11.545h-2.898L14.434.483h2.9L15.52 11.545M2.458.483h2.284c1.258 0 1.375.996 1.375.996l.976 4.975s-.656-2.018-2.67-3.638C2.317 1.123.12.671.12.671L.174.483h4.568c1.258 0 1.375.996 1.375.996l.976 4.975.327 1.638L10.183.483h3.12L8.691 11.545h-3.02l-2.518-9.61C1.518.959.121.67.12.67L.174.483h2.284z"/>
        <path fill="#FFC819" d="M7.093 6.454l-.976-4.975S6 .483 4.742.483H.174L.12.671s2.197.452 4.303 2.145c2.014 1.62 2.67 3.638 2.67 3.638"/>
    </g>
</svg>
