<svg xmlns="http://www.w3.org/2000/svg" width="48" height="18" viewBox="0 0 48 18">
    <g fill="#4B96E1" fill-rule="evenodd">
        <path d="M4.32 4.367L3.4 2.12l-.915 2.247H4.32zm20.261-.895c-.184.113-.403.116-.664.116h-1.633V2.336h1.655c.234 0 .478.011.637.102.175.082.282.257.282.498 0 .247-.102.445-.277.536zm11.646.895l-.93-2.247-.925 2.247h1.855zM14.519 6.8H13.14l-.005-4.415L11.188 6.8h-1.18L8.054 2.38V6.8H5.321l-.516-1.258H2.007L1.485 6.8H.025l2.407-5.638H4.43L6.714 6.5V1.162h2.193l1.759 3.825 1.615-3.825h2.238V6.8zm5.49 0H15.52V1.162h4.49v1.174h-3.146v1.016h3.07v1.156h-3.07v1.126h3.145V6.8zm6.33-4.12c0 .9-.599 1.364-.947 1.503.294.113.545.31.665.475.19.28.222.53.222 1.034V6.8h-1.356l-.005-.711c0-.34.033-.827-.212-1.098-.196-.199-.495-.242-.979-.242h-1.443V6.8h-1.343V1.163h3.09c.687 0 1.193.019 1.628.27.425.252.68.62.68 1.249zm.779-1.518h1.371V6.8h-1.371V1.162zM44.396 6.8h-1.904l-2.548-4.231v4.23h-2.736l-.523-1.257h-2.791L33.386 6.8h-1.572c-.653 0-1.48-.145-1.949-.624-.472-.478-.718-1.127-.718-2.152 0-.836.147-1.6.725-2.204.434-.45 1.114-.658 2.04-.658h1.301V2.37H31.94c-.49 0-.767.073-1.034.334-.23.238-.387.686-.387 1.277 0 .604.12 1.04.37 1.324.207.223.583.291.936.291h.604l1.894-4.433h2.013l2.276 5.332V1.163h2.045l2.362 3.926V1.163h1.377V6.8zM.01 7.907h2.296l.518-1.252h1.159l.516 1.252h4.518V6.95l.403.961h2.345l.403-.975v.971h11.227l-.005-2.055h.217c.152.005.197.02.197.271v1.784h5.806V7.43c.469.251 1.197.478 2.156.478h2.442l.523-1.252h1.159l.511 1.252h4.708v-1.19l.713 1.19h3.772V.045H41.86v.928l-.522-.928h-3.831v.928l-.48-.928h-5.174c-.867 0-1.628.12-2.243.459v-.46h-3.57v.46c-.392-.349-.925-.46-1.518-.46H11.476l-.875 2.031-.899-2.03H5.593v.928L5.142.045H1.637L.01 3.783v4.124zM47.82 12.066h-2.45c-.244 0-.407.009-.544.101-.142.092-.196.227-.196.406 0 .213.12.357.294.42.141.05.294.064.518.064l.728.02c.735.018 1.225.144 1.524.453.055.043.088.092.125.14v-1.604zm0 3.717c-.327.479-.963.721-1.824.721H43.4v-1.209h2.585c.256 0 .436-.034.544-.14a.496.496 0 0 0 .159-.367.464.464 0 0 0-.164-.373c-.098-.086-.24-.125-.474-.125-1.261-.043-2.836.039-2.836-1.746 0-.817.518-1.678 1.928-1.678h2.677V9.744h-2.487c-.75 0-1.296.18-1.682.46v-.46h-3.678c-.588 0-1.279.146-1.605.46v-.46h-6.57v.46c-.522-.378-1.404-.46-1.811-.46h-4.333v.46c-.413-.401-1.333-.46-1.894-.46h-4.85L17.8 10.948l-1.039-1.204H9.518v7.868h7.107l1.143-1.223 1.077 1.223 4.381.004v-1.851h.431c.581.009 1.267-.015 1.872-.277v2.124h3.613V15.56h.174c.223 0 .245.01.245.232v1.818h10.977c.697 0 1.425-.178 1.829-.503v.503h3.482c.724 0 1.432-.101 1.97-.362v-1.466zm-5.361-2.253c.261.272.402.615.402 1.195 0 1.213-.756 1.78-2.111 1.78h-2.617v-1.21h2.606c.255 0 .436-.034.55-.14a.5.5 0 0 0 .158-.367.484.484 0 0 0-.164-.373c-.103-.086-.245-.125-.478-.125-1.257-.043-2.831.039-2.831-1.746 0-.817.513-1.678 1.921-1.678h2.694v1.2h-2.465c-.244 0-.403.009-.538.102-.147.09-.202.226-.202.405 0 .213.125.358.294.42.142.05.294.064.523.064l.723.02c.73.018 1.23.144 1.535.453zm-12.125-.348c-.18.107-.403.116-.664.116h-1.632v-1.266h1.654c.24 0 .479.005.642.102.174.09.278.266.278.507s-.104.435-.278.541zm.811.702c.299.11.544.309.658.473.19.276.218.532.223 1.03v1.117h-1.35V15.8c0-.34.033-.842-.216-1.104-.197-.202-.496-.25-.986-.25h-1.436v2.06h-1.35v-5.64h3.102c.68 0 1.176.03 1.617.267.424.257.69.608.69 1.252 0 .9-.598 1.359-.952 1.5zm1.698-3.019h4.485v1.167H34.18v1.025h3.07v1.15h-3.07v1.122l3.147.005v1.17h-4.485v-5.639zm-9.067 2.603H22.04v-1.436h1.752c.485 0 .822.198.822.691 0 .488-.321.745-.838.745zm-3.075 2.523l-2.063-2.296 2.063-2.224v4.52zm-5.328-.662H12.07v-1.122h2.95v-1.15h-2.95v-1.025h3.369l1.47 1.643-1.536 1.654zm10.684-2.606c0 1.567-1.166 1.89-2.34 1.89H22.04v1.891h-2.612l-1.655-1.866-1.72 1.866h-5.322v-5.639h5.404l1.654 1.849 1.709-1.849h4.294c1.066 0 2.265.297 2.265 1.858z"/>
    </g>
</svg>
