<svg xmlns="http://www.w3.org/2000/svg" width="63" height="30" viewBox="0 0 63 30">
    <g fill="none" fill-rule="evenodd">
        <path fill="#FFF" d="M58.438 25.643h.68l1.412 2.506.446.894h.026a3.793 3.793 0 0 0-.026-.292 34.254 34.254 0 0 1-.032-.434 9.569 9.569 0 0 1-.026-.68v-1.994h.628v4.241h-.68l-1.411-2.512-.447-.887h-.026l.026.324.032.42c.017.23.026.443.026.642v2.013h-.628v-4.241zM55 29.185a1.26 1.26 0 0 0 .407-.573 2.41 2.41 0 0 0 .143-.864c0-.497-.106-.889-.317-1.176a1.002 1.002 0 0 0-.849-.43c-.354 0-.636.143-.848.43-.211.287-.317.68-.317 1.176 0 .328.047.616.142.864.095.248.231.44.408.573.177.134.382.2.615.2a.992.992 0 0 0 .615-.2m-1.576.508a1.78 1.78 0 0 1-.651-.77c-.155-.335-.233-.726-.233-1.175 0-.45.078-.838.233-1.166.155-.328.372-.58.65-.754a1.77 1.77 0 0 1 .962-.263c.363 0 .684.088.962.263.278.174.495.426.65.754.156.328.234.717.234 1.166 0 .449-.078.84-.233 1.175a1.78 1.78 0 0 1-.651.77c-.278.18-.599.27-.962.27-.362 0-.683-.09-.961-.27M49.67 29.884h.66v-4.241h-.66zM45.312 29.703a1.782 1.782 0 0 1-.673-.754c-.164-.33-.246-.722-.246-1.176 0-.449.084-.84.252-1.172.169-.332.399-.588.69-.767.291-.179.616-.269.975-.269.246 0 .471.05.676.15.205.099.38.226.522.381l-.357.428c-.246-.255-.522-.382-.828-.382-.246 0-.463.065-.651.197a1.3 1.3 0 0 0-.44.56 2.119 2.119 0 0 0-.16.855c0 .505.112.903.334 1.195.223.291.522.437.897.437.354 0 .667-.151.94-.453l.355.414c-.35.41-.79.615-1.32.615-.36 0-.68-.086-.966-.259M41.589 28.149l-.168-.57c-.06-.203-.129-.438-.204-.706l-.165-.582a.594.594 0 0 0-.033-.123h-.026c-.138.53-.27 1.001-.395 1.411l-.168.57h1.159zm.156.525h-1.477l-.363 1.21h-.673l1.405-4.241h.764l1.405 4.241h-.699l-.362-1.21zM35.386 27.637h.647c.311 0 .547-.063.71-.19.161-.128.242-.319.242-.574 0-.25-.079-.43-.236-.537-.158-.108-.396-.162-.716-.162h-.647v1.463zm1.657 2.247l-.951-1.716h-.706v1.716h-.66v-4.241h1.385c.475 0 .848.096 1.12.288.272.192.408.506.408.942 0 .315-.079.573-.236.774a1.29 1.29 0 0 1-.651.43l1.036 1.807h-.745zM29.946 25.643h2.506v.557h-1.845v1.191h1.56v.557h-1.56v1.38h1.91v.556h-2.57zM25.3 29.703a1.788 1.788 0 0 1-.696-.754c-.168-.33-.252-.722-.252-1.176 0-.449.086-.84.259-1.175.172-.334.409-.59.709-.767.3-.177.638-.266 1.013-.266.492 0 .91.177 1.256.531l-.356.428c-.12-.121-.25-.215-.388-.282a1.12 1.12 0 0 0-.492-.1 1.24 1.24 0 0 0-.693.194c-.199.13-.353.316-.463.56a2.07 2.07 0 0 0-.165.858c0 .51.116.909.35 1.198.232.29.565.434.996.434.134 0 .262-.019.382-.055a.725.725 0 0 0 .292-.159v-.997h-.842v-.544h1.438v1.832a1.576 1.576 0 0 1-.57.363 2.09 2.09 0 0 1-.764.136c-.38 0-.718-.086-1.014-.259M21.483 29.884h.66v-4.241h-.66zM17.047 27.637h.648c.31 0 .547-.063.71-.19.161-.128.242-.319.242-.574 0-.25-.079-.43-.236-.537-.158-.108-.397-.162-.716-.162h-.648v1.463zm1.658 2.247l-.952-1.716h-.706v1.716h-.66v-4.241h1.386c.475 0 .848.096 1.12.288.272.192.408.506.408.942 0 .315-.079.573-.236.774a1.29 1.29 0 0 1-.651.43l1.036 1.807h-.745zM11.802 25.643h2.513v.557h-1.852V27.5h1.573v.557h-1.573v1.826h-.66zM7.024 25.643H9.53v.557H7.684v1.191h1.56v.557h-1.56v1.38h1.91v.556h-2.57zM2.588 27.637h.648c.31 0 .547-.063.709-.19.162-.128.242-.319.242-.574 0-.25-.078-.43-.236-.537-.158-.108-.396-.162-.715-.162h-.648v1.463zm1.658 2.247l-.952-1.716h-.706v1.716h-.66v-4.241h1.385c.475 0 .849.096 1.12.288.272.192.408.506.408.942 0 .315-.078.573-.236.774a1.29 1.29 0 0 1-.65.43l1.035 1.807h-.744zM62.635 24.478H.96c-.066 0-.119-.112-.119-.25s.053-.25.119-.25h61.674c.065 0 .118.112.118.25s-.053.25-.118.25M60.721 22.394a1.672 1.672 0 1 1 0-3.345 1.672 1.672 0 0 1 0 3.345m0-3.62a1.948 1.948 0 1 0 0 3.896 1.948 1.948 0 0 0 0-3.896"/>
        <path fill="#FFF" d="M61.692 20.61c.056-.045.084-.117.084-.217 0-.094-.029-.162-.085-.204-.056-.041-.147-.062-.272-.062h-.187v.55h.211c.11 0 .193-.023.25-.067zm-.46.227v.643h-.209v-1.516h.398c.19 0 .333.036.43.108.098.072.147.179.147.32a.393.393 0 0 1-.081.258.498.498 0 0 1-.247.15l.41.68h-.25l-.362-.643h-.236zM60.6 21.48l-.053-.684a10.825 10.825 0 0 1-.038-.619l-.328 1.131h-.196l-.345-1.133c0 .183-.01.395-.029.636l-.05.669h-.198l.125-1.516h.282l.319 1.102.303-1.102h.284l.126 1.516h-.203zM51.75 3.499s1.093-.234 2.332-.234c1.239 0 4.708.481 4.708 3.892 0 3.412-2.697 5.132-5.933 5.292 0 0 .82.452 2.318.452 3.95 0 7.434-2.464 7.434-6.166 0-3.703-2.886-5.817-7.521-5.817h-8.191s1.472.38 1.472 3.12v14.765c0 3.775-1.472 3.865-1.472 3.865h6.56c-.919-.755-1.72-.877-1.72-3.865 0-7.214.012-15.304.012-15.304M37.173 14.828c.78-.372 1.365-.794 1.752-1.266s.58-.998.58-1.578c0-.453-.14-.827-.42-1.124a1.38 1.38 0 0 0-1.044-.443c-.547 0-.961.19-1.242.571-.28.381-.42.754-.42 1.12 0 .308.054.653.16 1.034.108.38.319.943.634 1.686zm1.464 5.904c-.832-1.134-1.408-1.962-1.729-2.485a25.016 25.016 0 0 1-1.058-1.946c-.756.435-1.324.914-1.705 1.436a2.828 2.828 0 0 0-.572 1.7c0 .675.218 1.266.652 1.777.435.51 1.02.765 1.757.765.397 0 .78-.08 1.148-.237.368-.157.87-.494 1.507-1.01zm2.144-6.15h3.967v.35c-.548.044-.952.165-1.214.363-.26.199-.669.799-1.223 1.8a20.136 20.136 0 0 1-1.87 2.805c.56.656 1.061 1.114 1.502 1.375.44.261.885.392 1.332.392.434 0 .803-.118 1.105-.354.302-.236.516-.584.642-1.044l.35.255c-.233.888-.608 1.543-1.124 1.965a2.768 2.768 0 0 1-1.804.633c-.517 0-1.041-.14-1.573-.42-.533-.28-1.113-.755-1.743-1.422-.781.692-1.485 1.173-2.111 1.44a5.057 5.057 0 0 1-2.008.402c-1.039 0-1.864-.277-2.475-.832-.61-.554-.916-1.215-.916-1.983 0-.762.274-1.523.822-2.282.548-.758 1.577-1.544 3.089-2.356-.296-.655-.498-1.192-.605-1.611a4.856 4.856 0 0 1-.16-1.204c0-1.077.396-1.9 1.19-2.466a3.535 3.535 0 0 1 2.106-.661c.75 0 1.36.222 1.833.666.472.444.709.99.709 1.639 0 .667-.229 1.253-.685 1.757-.457.504-1.265 1.055-2.423 1.653a38.327 38.327 0 0 0 2.503 3.91c1.108-1.322 1.662-2.437 1.662-3.343 0-.29-.094-.548-.283-.775-.139-.17-.337-.27-.595-.302v-.35zM17.799 4.563L18.863.569s.685.32 1.195.32L33.761.875c.714 0 1.21-.306 1.21-.306l-.962 3.994s-.277-1.283-2.945-1.283h-3.003s.015 12.522.015 15.525c0 2.988.802 3.11 1.72 3.865h-6.56s1.473-.09 1.473-3.865V3.28h-2.901c-2.755 0-4.009 1.283-4.009 1.283M14.078 22.67H1.054A1.054 1.054 0 0 1 0 21.616V1.054C0 .472.472 0 1.054 0h13.024c.582 0 1.053.472 1.053 1.054v20.562c0 .582-.471 1.054-1.053 1.054"/>
        <path fill="#194B96" d="M11.82 12.646c-1.782 0-2.98.402-5.117 1.172-1.48.534-3.531 1.104-4.85 1.104-.948 0-1.737-.27-1.744-.273L0 14.611v1.567c.267.082.994.276 1.853.276 1.192 0 3.088-.428 5.073-1.143 2.123-.766 3.218-1.134 4.894-1.134 1.64 0 3.183.558 3.198.564l.113.041v-1.571c-.4-.135-1.795-.565-3.311-.565"/>
        <path fill="#FFF" d="M0 15.834s.832.292 1.853.292c1.022 0 2.817-.35 4.962-1.124 2.145-.773 3.283-1.153 5.005-1.153s3.311.584 3.311.584v-.875s-1.59-.584-3.311-.584c-1.722 0-2.86.38-5.005 1.153s-3.94 1.123-4.962 1.123C.832 15.25 0 14.96 0 14.96v.875z"/>
        <path fill="#194B96" d="M11.82 9.315c-1.782 0-2.98.401-5.117 1.172-1.48.534-3.531 1.104-4.85 1.104-.948 0-1.737-.27-1.744-.273L0 11.279v1.568c.267.081.994.275 1.853.275 1.192 0 3.088-.427 5.073-1.143 2.123-.765 3.218-1.133 4.894-1.133 1.64 0 3.183.558 3.198.563l.113.042V9.879c-.4-.135-1.795-.564-3.311-.564"/>
        <path fill="#FFF" d="M0 12.502s.832.292 1.853.292c1.022 0 2.817-.35 4.962-1.123 2.145-.774 3.283-1.153 5.005-1.153s3.311.583 3.311.583v-.875s-1.59-.583-3.311-.583c-1.722 0-2.86.379-5.005 1.152-2.145.774-3.94 1.124-4.962 1.124-1.021 0-1.853-.292-1.853-.292v.875z"/>
    </g>
</svg>
