<svg xmlns="http://www.w3.org/2000/svg" width="39" height="23" viewBox="0 0 39 23">
    <g fill="none" fill-rule="evenodd">
        <path fill="#FF0F19" d="M23.018 11.554c0 6.31-5.114 11.425-11.424 11.425S.17 17.864.17 11.554C.17 5.244 5.284.128 11.594.128c6.31 0 11.424 5.116 11.424 11.426"/>
        <path fill="#FFD723" d="M27.045.128a11.384 11.384 0 0 0-8.823 4.167h2.308c.315.384.606.788.87 1.21h-4.05c-.242.389-.462.792-.658 1.21h5.367c.183.392.345.795.484 1.21h-6.335c-.131.394-.243.798-.332 1.21h6.998a11.521 11.521 0 0 1-.331 6.048h-6.335c.14.415.3.818.484 1.21h5.367c-.196.417-.416.821-.66 1.21H17.35c.265.422.556.826.872 1.21h2.307c-.355.43-.74.834-1.154 1.209a11.382 11.382 0 0 0 7.67 2.957c6.309 0 11.424-5.115 11.424-11.425 0-6.31-5.115-11.426-11.424-11.426"/>
        <path fill="#194B96" d="M35.65 8.976l-.275 1.674c-.338-.446-.703-.77-1.184-.77-.626 0-1.195.475-1.568 1.174-.52-.108-1.056-.291-1.056-.291v.004c.04-.39.058-.628.054-.71h-1.14c-.154 1.46-.43 2.937-.646 4.397l-.057.317h1.242c.167-1.088.295-1.992.39-2.708.424-.383.636-.717 1.064-.695-.19.458-.3.987-.3 1.529 0 1.178.595 1.955 1.497 1.955.454 0 .803-.157 1.143-.52l-.058.438h1.173l.945-5.794h-1.223zm-1.55 4.706c-.422 0-.636-.313-.636-.93 0-.926.4-1.582.962-1.582.426 0 .657.324.657.923 0 .934-.406 1.589-.983 1.589zM28.52 12.778a2.049 2.049 0 0 0-.275-.02c-.703 0-1.059.241-1.059.717 0 .294.174.481.445.481.504 0 .87-.48.89-1.178zm.904 2.1h-1.028l.023-.489c-.313.386-.731.57-1.3.57-.672 0-1.132-.526-1.132-1.288 0-1.148.8-1.816 2.177-1.816.14 0 .32.013.505.036.038-.156.049-.222.049-.306 0-.312-.216-.428-.795-.428a4.124 4.124 0 0 0-1.313.211l.172-1.06c.618-.18 1.025-.25 1.484-.25 1.065 0 1.63.48 1.628 1.383.002.242-.038.542-.1.934-.108.682-.339 2.146-.37 2.502zM25.25 10.23c.344 0 .665.09 1.108.313l.203-1.257c-.183-.072-.822-.491-1.364-.491-.83 0-1.532.412-2.025 1.091-.72-.238-1.016.244-1.379.724l-.322.075c.025-.158.047-.315.04-.474h-1.14c-.155 1.46-.43 2.937-.647 4.396l-.056.317h1.24c.208-1.346.32-2.207.39-2.79l.467-.26c.07-.26.288-.347.727-.336a5.296 5.296 0 0 0-.089.966c0 1.542.833 2.502 2.168 2.502.344 0 .64-.045 1.097-.17l.217-1.32c-.411.201-.748.297-1.053.297-.721 0-1.158-.533-1.158-1.412 0-1.277.649-2.17 1.575-2.17M19.241 14.768c-.423.13-.833.191-1.265.19-1.38 0-2.1-.721-2.1-2.101 0-1.612.915-2.798 2.157-2.798 1.018 0 1.667.664 1.667 1.706 0 .346-.045.683-.152 1.159h-2.455c-.084.684.354.969 1.071.969.441 0 .84-.091 1.283-.297l-.206 1.172zm-.693-2.795c.007-.098.13-.84-.574-.84-.392 0-.673.3-.787.84h1.361zM15.401 14.872c-.34.106-.604.153-.89.153-.635 0-.981-.365-.981-1.035-.009-.21.091-.756.17-1.257.072-.44.538-3.216.538-3.216h1.233l-.144.713h.633l-.169 1.133h-.635c-.143.897-.347 2.013-.35 2.16 0 .244.13.35.425.35.141 0 .25-.014.335-.045l-.165 1.044M10.568 11.654c0 .597.29 1.007.945 1.316.502.237.58.307.58.52 0 .294-.221.427-.712.427-.37 0-.714-.057-1.112-.186l-.17 1.088c.282.062.533.118 1.29.14 1.31 0 1.914-.498 1.914-1.575 0-.648-.253-1.028-.874-1.313-.52-.24-.58-.292-.58-.513 0-.254.206-.385.607-.385.243 0 .576.027.891.071l.177-1.093a8.442 8.442 0 0 0-1.092-.092c-1.388 0-1.868.725-1.864 1.595M9.023 12.778a2.062 2.062 0 0 0-.277-.02c-.703 0-1.059.241-1.059.717 0 .294.174.481.445.481.505 0 .87-.48.891-1.178zm.902 2.1H8.898l.023-.489c-.313.386-.732.57-1.3.57-.672 0-1.133-.526-1.133-1.288 0-1.148.802-1.816 2.178-1.816.14 0 .32.013.505.036.039-.156.049-.222.049-.306 0-.312-.216-.428-.796-.428a4.119 4.119 0 0 0-1.313.211l.172-1.06c.618-.18 1.026-.25 1.485-.25 1.065 0 1.629.48 1.628 1.383.002.242-.038.542-.1.934-.108.682-.34 2.146-.371 2.502zM5.865 14.95h-1.24l.71-4.454-1.586 4.455h-.845l-.105-4.429-.747 4.429H.892l.97-5.795h1.783l.05 3.587 1.203-3.587h1.926l-.96 5.795"/>
        <path fill="#FFFFFE" d="M36.423 14.59H35.25l.058-.439c-.34.364-.689.52-1.143.52-.902 0-1.498-.776-1.498-1.955 0-1.568.925-2.89 2.018-2.89.481 0 .845.197 1.185.644l.275-1.675h1.223l-.945 5.795zm-1.83-1.09c.578 0 .984-.654.984-1.587 0-.6-.231-.924-.658-.924-.562 0-.961.656-.961 1.583 0 .617.214.929.635.929zM30.843 9.748c-.156 1.459-.431 2.937-.647 4.396l-.057.317h1.24c.445-2.882.551-3.444 1.248-3.374.11-.59.316-1.107.47-1.367-.52-.108-.81.185-1.19.743.03-.241.086-.475.075-.715h-1.14M28.882 12.417a2.049 2.049 0 0 0-.276-.02c-.703 0-1.059.241-1.059.717 0 .293.174.481.445.481.504 0 .87-.481.89-1.178zm.903 2.099h-1.028l.023-.488c-.313.385-.731.57-1.3.57-.672 0-1.132-.526-1.132-1.288 0-1.148.8-1.816 2.177-1.816.14 0 .32.013.505.036.038-.156.049-.222.049-.306 0-.312-.216-.428-.795-.428a4.124 4.124 0 0 0-1.313.211l.172-1.06c.618-.18 1.025-.25 1.484-.25 1.065 0 1.63.48 1.628 1.383.002.242-.038.542-.1.934-.108.682-.339 2.146-.37 2.502zM26.894 8.915l-.203 1.258c-.443-.223-.764-.313-1.108-.313-.926 0-1.576.895-1.576 2.172 0 .88.437 1.41 1.158 1.41.305 0 .643-.094 1.053-.297L26 14.466c-.456.125-.752.17-1.096.17-1.335 0-2.167-.96-2.167-2.502 0-2.072 1.15-3.52 2.794-3.52.541 0 1.18.23 1.363.301M20.733 9.748c-.156 1.459-.432 2.937-.648 4.396l-.056.317h1.24c.445-2.882.551-3.444 1.246-3.374.112-.59.319-1.107.472-1.367-.52-.108-.81.185-1.19.743.03-.241.086-.475.075-.715h-1.14M19.602 14.407c-.423.13-.832.191-1.265.19-1.38 0-2.1-.721-2.1-2.102 0-1.611.916-2.797 2.158-2.797 1.017 0 1.666.664 1.666 1.706 0 .346-.045.683-.152 1.159h-2.455c-.084.684.354.969 1.071.969.441 0 .84-.092 1.283-.297l-.206 1.172zm-.693-2.795c.007-.098.131-.84-.574-.84-.392 0-.673.299-.787.84h1.361zM15.762 14.51c-.34.107-.604.154-.89.154-.635 0-.981-.365-.981-1.035-.009-.21.092-.756.17-1.257.072-.44.538-3.216.538-3.216h1.233l-.144.713h.633l-.169 1.133h-.635c-.143.897-.347 2.013-.35 2.16 0 .244.13.35.425.35.141 0 .25-.014.335-.045l-.165 1.043M10.93 11.293c0 .597.289 1.007.944 1.316.502.237.58.306.58.52 0 .294-.221.427-.712.427-.37 0-.714-.058-1.112-.186l-.17 1.088c.282.062.533.118 1.29.14 1.31 0 1.914-.498 1.914-1.575 0-.648-.253-1.028-.874-1.313-.52-.24-.58-.292-.58-.513 0-.255.206-.386.607-.386.243 0 .576.027.891.072l.177-1.093a8.442 8.442 0 0 0-1.092-.092c-1.388 0-1.868.724-1.863 1.595M9.384 12.417a2.062 2.062 0 0 0-.277-.02c-.703 0-1.059.241-1.059.717 0 .293.174.481.445.481.505 0 .87-.481.891-1.178zm.902 2.099H9.26l.023-.488c-.313.385-.732.57-1.3.57-.672 0-1.133-.526-1.133-1.288 0-1.148.802-1.816 2.178-1.816.14 0 .32.013.505.036.039-.156.049-.222.049-.306 0-.312-.216-.428-.796-.428a4.119 4.119 0 0 0-1.313.211l.172-1.06c.618-.18 1.026-.25 1.485-.25 1.065 0 1.629.48 1.628 1.383.002.242-.038.542-.1.934-.108.682-.34 2.146-.37 2.502zM6.226 14.59h-1.24l.71-4.455L4.11 14.59h-.845l-.105-4.43-.747 4.43h-1.16l.97-5.795h1.783l.05 3.587 1.203-3.587h1.926l-.96 5.795"/>
    </g>
</svg>
