<svg xmlns="http://www.w3.org/2000/svg" width="64" height="18" viewBox="0 0 64 18">
    <g fill="none" fill-rule="evenodd">
        <path fill="#55A5EB" d="M60.557 1.035l-2.014 12.808a.409.409 0 0 0 .404.473h2.026a.682.682 0 0 0 .674-.576l1.986-12.578a.409.409 0 0 0-.404-.473h-2.267a.408.408 0 0 0-.405.346M54.511 9.799c-.227 1.342-1.293 2.243-2.653 2.243-.682 0-1.228-.22-1.579-.634-.348-.412-.478-.998-.368-1.65.212-1.33 1.295-2.26 2.634-2.26.668 0 1.21.221 1.567.64.36.422.502 1.011.4 1.66m3.275-4.572h-2.35a.41.41 0 0 0-.405.346l-.103.656-.165-.237c-.509-.739-1.643-.986-2.776-.986-2.597 0-4.815 1.967-5.247 4.725-.225 1.376.094 2.691.875 3.61.717.842 1.74 1.193 2.96 1.193 2.094 0 3.255-1.343 3.255-1.343l-.105.653a.409.409 0 0 0 .404.472h2.117a.682.682 0 0 0 .674-.575L58.19 5.7a.41.41 0 0 0-.404-.473M43.681 5.283c-.268 1.76-1.614 1.76-2.916 1.76h-.74l.52-3.287a.408.408 0 0 1 .403-.345h.34c.886 0 1.723 0 2.155.504.258.302.336.75.238 1.368M43.115.689h-4.909a.682.682 0 0 0-.674.575l-1.985 12.579a.41.41 0 0 0 .404.472h2.519c.235 0 .435-.17.471-.402l.564-3.567a.682.682 0 0 1 .673-.575h1.553c3.234 0 5.1-1.564 5.588-4.663.22-1.355.009-2.42-.626-3.166-.698-.82-1.936-1.253-3.578-1.253"/>
        <path fill="#194B96" d="M35.294 5.226H32.93a.68.68 0 0 0-.564.3l-3.26 4.796-1.38-4.61a.683.683 0 0 0-.654-.486h-2.322a.409.409 0 0 0-.388.541l2.602 7.632-2.447 3.45a.409.409 0 0 0 .334.645h2.36c.224 0 .433-.11.561-.293L35.63 5.868a.409.409 0 0 0-.336-.642M19.498 9.799c-.227 1.342-1.293 2.243-2.653 2.243-.682 0-1.228-.22-1.578-.634-.348-.412-.479-.998-.369-1.65.212-1.33 1.295-2.26 2.634-2.26.668 0 1.21.221 1.568.64.36.422.501 1.011.398 1.66m3.276-4.572h-2.35a.41.41 0 0 0-.405.346l-.103.656-.164-.237c-.51-.739-1.644-.986-2.777-.986-2.597 0-4.815 1.967-5.247 4.725-.225 1.376.094 2.691.875 3.61.717.842 1.74 1.193 2.96 1.193 2.094 0 3.255-1.343 3.255-1.343l-.105.653a.409.409 0 0 0 .404.472h2.117a.682.682 0 0 0 .674-.575l1.27-8.041a.41.41 0 0 0-.404-.473M8.668 5.283c-.268 1.76-1.614 1.76-2.915 1.76h-.74l.519-3.287a.408.408 0 0 1 .403-.345h.34c.886 0 1.723 0 2.155.504.258.302.336.75.238 1.368M8.102.689H3.193a.682.682 0 0 0-.674.575L.534 13.843a.409.409 0 0 0 .404.472h2.344c.336 0 .621-.244.674-.575l.536-3.394a.682.682 0 0 1 .673-.575h1.553c3.234 0 5.1-1.564 5.588-4.663.22-1.355.009-2.42-.626-3.166C10.982 1.122 9.744.69 8.102.69"/>
    </g>
</svg>
