<svg xmlns="http://www.w3.org/2000/svg" width="54" height="18" viewBox="0 0 54 18">
    <g fill="none" fill-rule="evenodd">
        <path fill="#00377B" d="M49.476 17.318l-.51-2.464h-5.528l-.906 2.464H38L44.484 1.96S44.878.725 46.493.725h3.495l3.48 16.593h-3.992zm-4.784-5.87h3.57l-1.286-6.21-2.284 6.21zM38.34 4.715l.62-3.563S37.046.428 35.05.428c-2.158 0-7.283.937-7.283 5.493 0 4.288 6.015 4.341 6.015 6.591 0 2.251-5.394 1.85-7.176.43l-.645 3.724s1.94.938 4.908.938c2.967 0 7.444-1.527 7.444-5.68 0-4.315-6.068-4.717-6.068-6.593 0-1.876 4.235-1.635 6.095-.616M23.281 17.318h-4.348L21.65.725H26L23.28 17.318M.183 1.006c.106.023 3.344.72 6.451 3.218 3.021 2.43 4.005 5.457 4.005 5.457L9.176 2.219S9 .725 7.113.725H3.687h3.426C9 .725 9.176 2.22 9.176 2.22l1.463 7.462V9.68l.491 2.458L15.275.725h4.68l-6.918 16.593h-4.53L4.73 2.902C2.327 1.47.267 1.024.183 1.006z"/>
        <path fill="#FFC819" d="M10.639 9.68L9.176 2.22S9 .724 7.113.724H.26l-.08.28s3.295.68 6.454 3.22C9.655 6.653 10.64 9.68 10.64 9.68"/>
    </g>
</svg>
